<svg width="388" height="68" viewBox="0 0 388 68" fill="none" xmlns="http://www.w3.org/2000/svg">
<rect x="2.25" y="2.25" width="95.5" height="63.5" rx="5.75" fill="url(#paint0_linear_230_9663)"/>
<path d="M23.96 45.336C22.8586 45.336 21.8693 45.1587 20.992 44.804C20.1146 44.4493 19.368 43.9453 18.752 43.292C18.1546 42.6387 17.688 41.8453 17.352 40.912C17.0346 39.9787 16.876 38.9333 16.876 37.776C16.876 36.6187 17.0346 35.5733 17.352 34.64C17.688 33.7067 18.1546 32.9133 18.752 32.26C19.368 31.6067 20.1053 31.1027 20.964 30.748C21.8413 30.3933 22.8306 30.216 23.932 30.216C25.4626 30.216 26.6946 30.5333 27.628 31.168C28.5613 31.8027 29.2706 32.6427 29.756 33.688L26.984 35.2C26.7226 34.584 26.3493 34.0893 25.864 33.716C25.3973 33.324 24.7533 33.128 23.932 33.128C22.868 33.128 22.0466 33.436 21.468 34.052C20.908 34.668 20.628 35.508 20.628 36.572V38.98C20.628 40.0253 20.908 40.8653 21.468 41.5C22.0466 42.116 22.8866 42.424 23.988 42.424C24.8466 42.424 25.528 42.228 26.032 41.836C26.5546 41.444 26.9746 40.9213 27.292 40.268L29.98 41.864C29.4946 42.8907 28.7573 43.7307 27.768 44.384C26.7973 45.0187 25.528 45.336 23.96 45.336Z" fill="#020F30"/>
<path d="M33.805 42.172H38.397V27.108H33.805V24.28H41.981V42.172H46.601V45H33.805V42.172Z" fill="#020F30"/>
<path d="M57.8741 28.312C57.0341 28.312 56.4368 28.1347 56.0821 27.78C55.7461 27.4253 55.5781 26.996 55.5781 26.492V25.82C55.5781 25.316 55.7461 24.8867 56.0821 24.532C56.4368 24.1773 57.0341 24 57.8741 24C58.7141 24 59.3021 24.1773 59.6381 24.532C59.9928 24.8867 60.1701 25.316 60.1701 25.82V26.492C60.1701 26.996 59.9928 27.4253 59.6381 27.78C59.3021 28.1347 58.7141 28.312 57.8741 28.312ZM51.3221 42.172H56.0821V33.38H51.3221V30.552H59.6661V42.172H64.0901V45H51.3221V42.172Z" fill="#020F30"/>
<path fill-rule="evenodd" clip-rule="evenodd" d="M56.2612 24.7065C55.9723 25.0126 55.8281 25.3789 55.8281 25.82V26.492C55.8281 26.9331 55.9723 27.2994 56.2612 27.6055C56.5463 27.8888 57.0604 28.062 57.8741 28.062C58.6919 28.062 59.1923 27.887 59.4566 27.6081L59.4613 27.6032C59.7688 27.2956 59.9201 26.9301 59.9201 26.492V25.82C59.9201 25.3819 59.7689 25.0163 59.4613 24.7088L59.4565 24.704C59.1923 24.425 58.6919 24.25 57.8741 24.25C57.0604 24.25 56.5463 24.4232 56.2612 24.7065ZM55.9053 24.3552C56.3301 23.9305 57.01 23.75 57.8741 23.75C58.7346 23.75 59.4093 23.929 59.8172 24.3576C60.2175 24.7589 60.4201 25.2512 60.4201 25.82V26.492C60.4201 27.0608 60.2175 27.5531 59.8172 27.9544C59.4093 28.383 58.7346 28.562 57.8741 28.562C57.01 28.562 56.3301 28.3815 55.9053 27.9568L55.9005 27.952C55.519 27.5493 55.3281 27.0577 55.3281 26.492V25.82C55.3281 25.2543 55.5191 24.7628 55.9006 24.3601L55.9053 24.3552ZM23.932 30.466C22.8579 30.466 21.9014 30.6388 21.0585 30.9794C20.2324 31.3208 19.5256 31.8043 18.9352 32.4301C18.3637 33.0556 17.9138 33.8182 17.588 34.7226C17.2813 35.6254 17.126 36.6423 17.126 37.776C17.126 38.9097 17.2813 39.9266 17.588 40.8294C17.9138 41.7338 18.3637 42.4964 18.9352 43.1219C19.5249 43.7469 20.2405 44.2306 21.0857 44.5722C21.9288 44.9131 22.8856 45.086 23.96 45.086C25.4959 45.086 26.7129 44.775 27.6309 44.1749C28.5169 43.5897 29.1894 42.852 29.653 41.9606L27.3922 40.6183C27.0762 41.1929 26.6739 41.6666 26.1837 42.0347C25.6231 42.47 24.8823 42.674 23.988 42.674C22.8396 42.674 21.9249 42.3515 21.2858 41.6712L21.2804 41.6655C20.6712 40.9751 20.378 40.0713 20.378 38.98V36.572C20.378 35.4637 20.6705 34.5576 21.283 33.8838L21.2857 33.8808C21.9233 33.2021 22.818 32.878 23.932 32.878C24.7893 32.878 25.4958 33.0823 26.0206 33.5211C26.4727 33.8699 26.8318 34.3153 27.0991 34.8524L29.4269 33.5827C28.9651 32.6751 28.3192 31.9403 27.4874 31.3747C26.6079 30.7767 25.4299 30.466 23.932 30.466Z" fill="#020F30"/>
<rect x="71" y="18" width="14" height="32" rx="2" fill="#2C64F2"/>
<rect x="2.25" y="2.25" width="95.5" height="63.5" rx="5.75" stroke="#020F30" stroke-width="4.5"/>
<path d="M147.448 20.476L137.72 47H131.26L121.532 20.476H127.232L134.528 41.566L141.786 20.476H147.448ZM170.208 36.018C170.208 36.778 170.157 37.462 170.056 38.07H154.666C154.792 39.59 155.324 40.7807 156.262 41.642C157.199 42.5033 158.352 42.934 159.72 42.934C161.696 42.934 163.102 42.0853 163.938 40.388H169.676C169.068 42.4147 167.902 44.0867 166.18 45.404C164.457 46.696 162.342 47.342 159.834 47.342C157.807 47.342 155.983 46.8987 154.362 46.012C152.766 45.1 151.512 43.8207 150.6 42.174C149.713 40.5273 149.27 38.6273 149.27 36.474C149.27 34.2953 149.713 32.3827 150.6 30.736C151.486 29.0893 152.728 27.8227 154.324 26.936C155.92 26.0493 157.756 25.606 159.834 25.606C161.835 25.606 163.621 26.0367 165.192 26.898C166.788 27.7593 168.016 28.988 168.878 30.584C169.764 32.1547 170.208 33.966 170.208 36.018ZM164.698 34.498C164.672 33.13 164.178 32.0407 163.216 31.23C162.253 30.394 161.075 29.976 159.682 29.976C158.364 29.976 157.25 30.3813 156.338 31.192C155.451 31.9773 154.906 33.0793 154.704 34.498H164.698ZM179.411 29.216C180.095 28.1013 180.981 27.2273 182.071 26.594C183.185 25.9607 184.452 25.644 185.871 25.644V31.23H184.465C182.793 31.23 181.526 31.6227 180.665 32.408C179.829 33.1933 179.411 34.5613 179.411 36.512V47H174.091V25.948H179.411V29.216ZM209.594 25.948L196.56 56.956H190.898L195.458 46.468L187.022 25.948H192.988L198.422 40.654L203.932 25.948H209.594ZM239.985 28.456C239.377 27.3413 238.541 26.4927 237.477 25.91C236.413 25.3273 235.171 25.036 233.753 25.036C232.182 25.036 230.789 25.3907 229.573 26.1C228.357 26.8093 227.407 27.8227 226.723 29.14C226.039 30.4573 225.697 31.9773 225.697 33.7C225.697 35.4733 226.039 37.0187 226.723 38.336C227.432 39.6533 228.407 40.6667 229.649 41.376C230.89 42.0853 232.334 42.44 233.981 42.44C236.007 42.44 237.667 41.908 238.959 40.844C240.251 39.7547 241.099 38.2473 241.505 36.322H232.385V32.256H246.749V36.892C246.394 38.7413 245.634 40.4513 244.469 42.022C243.303 43.5927 241.796 44.8593 239.947 45.822C238.123 46.7593 236.071 47.228 233.791 47.228C231.232 47.228 228.914 46.658 226.837 45.518C224.785 44.3527 223.163 42.744 221.973 40.692C220.807 38.64 220.225 36.3093 220.225 33.7C220.225 31.0907 220.807 28.76 221.973 26.708C223.163 24.6307 224.785 23.022 226.837 21.882C228.914 20.7167 231.219 20.134 233.753 20.134C236.742 20.134 239.339 20.8687 241.543 22.338C243.747 23.782 245.267 25.8213 246.103 28.456H239.985ZM260.033 47.342C258.006 47.342 256.182 46.8987 254.561 46.012C252.939 45.1 251.66 43.8207 250.723 42.174C249.811 40.5273 249.355 38.6273 249.355 36.474C249.355 34.3207 249.823 32.4207 250.761 30.774C251.723 29.1273 253.028 27.8607 254.675 26.974C256.321 26.062 258.158 25.606 260.185 25.606C262.211 25.606 264.048 26.062 265.695 26.974C267.341 27.8607 268.633 29.1273 269.571 30.774C270.533 32.4207 271.015 34.3207 271.015 36.474C271.015 38.6273 270.521 40.5273 269.532 42.174C268.57 43.8207 267.253 45.1 265.581 46.012C263.934 46.8987 262.085 47.342 260.033 47.342ZM260.033 42.706C260.995 42.706 261.895 42.478 262.731 42.022C263.592 41.5407 264.276 40.8313 264.783 39.894C265.289 38.9567 265.543 37.8167 265.543 36.474C265.543 34.4727 265.011 32.94 263.947 31.876C262.908 30.7867 261.629 30.242 260.109 30.242C258.589 30.242 257.309 30.7867 256.271 31.876C255.257 32.94 254.751 34.4727 254.751 36.474C254.751 38.4753 255.245 40.0207 256.233 41.11C257.246 42.174 258.513 42.706 260.033 42.706ZM284.265 47.342C282.238 47.342 280.414 46.8987 278.793 46.012C277.172 45.1 275.892 43.8207 274.955 42.174C274.043 40.5273 273.587 38.6273 273.587 36.474C273.587 34.3207 274.056 32.4207 274.993 30.774C275.956 29.1273 277.26 27.8607 278.907 26.974C280.554 26.062 282.39 25.606 284.417 25.606C286.444 25.606 288.28 26.062 289.927 26.974C291.574 27.8607 292.866 29.1273 293.803 30.774C294.766 32.4207 295.247 34.3207 295.247 36.474C295.247 38.6273 294.753 40.5273 293.765 42.174C292.802 43.8207 291.485 45.1 289.813 46.012C288.166 46.8987 286.317 47.342 284.265 47.342ZM284.265 42.706C285.228 42.706 286.127 42.478 286.963 42.022C287.824 41.5407 288.508 40.8313 289.015 39.894C289.522 38.9567 289.775 37.8167 289.775 36.474C289.775 34.4727 289.243 32.94 288.179 31.876C287.14 30.7867 285.861 30.242 284.341 30.242C282.821 30.242 281.542 30.7867 280.503 31.876C279.49 32.94 278.983 34.4727 278.983 36.474C278.983 38.4753 279.477 40.0207 280.465 41.11C281.478 42.174 282.745 42.706 284.265 42.706ZM297.781 36.398C297.781 34.27 298.199 32.3827 299.035 30.736C299.897 29.0893 301.062 27.8227 302.531 26.936C304.001 26.0493 305.635 25.606 307.433 25.606C308.801 25.606 310.106 25.91 311.347 26.518C312.589 27.1007 313.577 27.886 314.311 28.874V18.88H319.707V47H314.311V43.884C313.653 44.9227 312.728 45.7587 311.537 46.392C310.347 47.0253 308.966 47.342 307.395 47.342C305.622 47.342 304.001 46.886 302.531 45.974C301.062 45.062 299.897 43.7827 299.035 42.136C298.199 40.464 297.781 38.5513 297.781 36.398ZM314.349 36.474C314.349 35.182 314.096 34.08 313.589 33.168C313.083 32.2307 312.399 31.5213 311.537 31.04C310.676 30.5333 309.751 30.28 308.763 30.28C307.775 30.28 306.863 30.5207 306.027 31.002C305.191 31.4833 304.507 32.1927 303.975 33.13C303.469 34.042 303.215 35.1313 303.215 36.398C303.215 37.6647 303.469 38.7793 303.975 39.742C304.507 40.6793 305.191 41.4013 306.027 41.908C306.889 42.4147 307.801 42.668 308.763 42.668C309.751 42.668 310.676 42.4273 311.537 41.946C312.399 41.4393 313.083 40.73 313.589 39.818C314.096 38.8807 314.349 37.766 314.349 36.474ZM332.666 33.7C332.666 31.0907 333.249 28.76 334.414 26.708C335.605 24.6307 337.213 23.022 339.24 21.882C341.292 20.7167 343.585 20.134 346.118 20.134C349.082 20.134 351.679 20.894 353.908 22.414C356.137 23.934 357.695 26.0367 358.582 28.722H352.464C351.856 27.4553 350.995 26.5053 349.88 25.872C348.791 25.2387 347.524 24.922 346.08 24.922C344.535 24.922 343.154 25.2893 341.938 26.024C340.747 26.7333 339.81 27.7467 339.126 29.064C338.467 30.3813 338.138 31.9267 338.138 33.7C338.138 35.448 338.467 36.9933 339.126 38.336C339.81 39.6533 340.747 40.6793 341.938 41.414C343.154 42.1233 344.535 42.478 346.08 42.478C347.524 42.478 348.791 42.1613 349.88 41.528C350.995 40.8693 351.856 39.9067 352.464 38.64H358.582C357.695 41.3507 356.137 43.466 353.908 44.986C351.704 46.4807 349.107 47.228 346.118 47.228C343.585 47.228 341.292 46.658 339.24 45.518C337.213 44.3527 335.605 42.744 334.414 40.692C333.249 38.64 332.666 36.3093 332.666 33.7ZM368.446 42.782H377.186V47H363.126V20.476H368.446V42.782ZM385.887 20.476V47H380.567V20.476H385.887Z" fill="#FBFCFF"/>
<defs>
<linearGradient id="paint0_linear_230_9663" x1="50" y1="0" x2="50" y2="68" gradientUnits="userSpaceOnUse">
<stop stop-color="#E4EBFE"/>
<stop offset="1" stop-color="#F4F7FE"/>
</linearGradient>
</defs>
</svg>
