<svg width="90" height="90" viewBox="0 0 90 90" fill="none" xmlns="http://www.w3.org/2000/svg">
<rect x="6" y="6" width="78" height="78" rx="16" fill="url(#paint0_linear_2575_2194)"/>
<path d="M19.988 56.336C18.8493 56.336 17.8227 56.168 16.908 55.832C16.012 55.4773 15.2467 54.9733 14.612 54.32C13.996 53.6667 13.52 52.8733 13.184 51.94C12.848 51.0067 12.68 49.952 12.68 48.776C12.68 47.6 12.848 46.5453 13.184 45.612C13.52 44.6787 13.996 43.8853 14.612 43.232C15.2467 42.5787 16.012 42.084 16.908 41.748C17.8227 41.3933 18.84 41.216 19.96 41.216C21.5467 41.216 22.816 41.5427 23.768 42.196C24.7387 42.8307 25.476 43.68 25.98 44.744L22.788 46.48C22.5267 45.92 22.1813 45.4533 21.752 45.08C21.3413 44.7067 20.744 44.52 19.96 44.52C19.008 44.52 18.2707 44.8 17.748 45.36C17.244 45.9013 16.992 46.648 16.992 47.6V49.952C16.992 50.904 17.244 51.66 17.748 52.22C18.2707 52.7613 19.0267 53.032 20.016 53.032C20.8187 53.032 21.444 52.8453 21.892 52.472C22.3587 52.0987 22.7507 51.6133 23.068 51.016L26.204 52.808C25.6813 53.872 24.916 54.7307 23.908 55.384C22.9187 56.0187 21.612 56.336 19.988 56.336ZM29.6931 52.78H34.1171V38.5H29.6931V35.28H38.2611V52.78H42.6851V56H29.6931V52.78ZM53.8741 39.704C52.9408 39.704 52.2875 39.5173 51.9141 39.144C51.5595 38.752 51.3821 38.2853 51.3821 37.744V36.932C51.3821 36.372 51.5595 35.9053 51.9141 35.532C52.2875 35.1587 52.9408 34.972 53.8741 34.972C54.8075 34.972 55.4515 35.1587 55.8061 35.532C56.1795 35.9053 56.3661 36.372 56.3661 36.932V37.744C56.3661 38.2853 56.1795 38.752 55.8061 39.144C55.4515 39.5173 54.8075 39.704 53.8741 39.704ZM47.2101 52.78H51.8021V44.772H47.2101V41.552H55.9461V52.78H60.2021V56H47.2101V52.78Z" fill="#2A48DF"/>
<rect x="65" y="29" width="14" height="32" rx="2" fill="#9EB7F9"/>
<rect x="6" y="6" width="78" height="78" rx="16" stroke="#CEDBFC" stroke-width="2"/>
<rect x="2.5" y="2.5" width="85" height="85" rx="19.5" stroke="#232938" stroke-width="5"/>
<defs>
<linearGradient id="paint0_linear_2575_2194" x1="45" y1="5" x2="45" y2="85" gradientUnits="userSpaceOnUse">
<stop stop-color="#B9CCFF"/>
<stop offset="1" stop-color="#D8E3FF"/>
</linearGradient>
</defs>
</svg>
