<svg width="104" height="104" viewBox="0 0 104 104" fill="none" xmlns="http://www.w3.org/2000/svg">
<rect x="2" y="2" width="100" height="100" rx="50" fill="#002891" stroke="#002891" stroke-width="4"/>
<path d="M33.0906 50.207L33.9696 35.7191L29.7735 37.1934L29.4687 44.65L24.5709 39.0221L20.3748 40.5035L30.1208 51.256L33.0906 50.207Z" fill="#CEDBFC"/>
<path d="M47.7558 45.0397L46.565 41.6587L42.9076 42.9416L42.4682 41.6871L45.92 40.4679L44.7221 37.0799L41.2703 38.299L40.8521 37.1011L44.5095 35.8111L43.3116 32.423L35.7983 35.0739L40.2425 47.6906L47.7558 45.0397Z" fill="#CEDBFC"/>
<path d="M54.6188 42.6296L53.35 39.0076L56.9507 41.8428L61.7848 40.1346L56.1569 36.4701C56.7051 36.0389 57.1164 35.4578 57.3406 34.7973C57.606 33.9141 57.5636 32.9669 57.2201 32.111C57.0333 31.5945 56.7574 31.1147 56.405 30.6934C56.0601 30.2708 55.6302 29.9255 55.1433 29.6798C54.6243 29.425 54.0557 29.2871 53.4776 29.2758C52.8008 29.2659 52.1279 29.3813 51.493 29.616L46.3187 31.4376L50.7629 44.0543L54.6188 42.6296ZM52.7405 32.9828C52.887 33.0331 53.0188 33.119 53.124 33.2329C53.2291 33.3467 53.3044 33.4848 53.3429 33.6349C53.4076 33.777 53.4363 33.9328 53.4264 34.0886C53.4165 34.2443 53.3683 34.3953 53.2862 34.528C53.0215 34.8737 52.6504 35.1228 52.2301 35.2368L52.0387 35.3077L51.2874 33.1813L51.4788 33.1175C51.8733 32.9357 52.3165 32.8884 52.7405 32.9828Z" fill="#CEDBFC"/>
<path d="M65.7486 38.7041L69.6045 37.3503L67.5135 31.3964L69.8526 23.0751L65.2241 24.7124L64.2814 28.3344L61.2548 26.1087L56.6263 27.739L63.6506 32.7573L65.7486 38.7041Z" fill="#CEDBFC"/>
<path d="M49.4354 50.349C48.5842 49.9597 47.6635 49.7452 46.7278 49.7182C45.7216 49.6907 44.7191 49.8517 43.7721 50.1931C42.8119 50.5147 41.9235 51.0203 41.1566 51.6816C40.4608 52.2774 39.891 53.0064 39.4808 53.8255C39.0706 54.6447 38.8282 55.5376 38.768 56.4518C38.7141 57.4003 38.8515 58.3501 39.172 59.2445C39.4746 60.1406 39.957 60.9655 40.5896 61.6686C41.2011 62.3439 41.9408 62.8908 42.7656 63.2775C43.6128 63.6651 44.5281 63.8819 45.4591 63.9155H45.7568C46.6707 63.9075 47.5766 63.7445 48.436 63.4335C49.3919 63.1068 50.277 62.6017 51.0444 61.945C51.7489 61.3475 52.3256 60.6138 52.7397 59.788C53.1538 58.9622 53.3969 58.0613 53.4543 57.1393C53.5157 56.1905 53.378 55.2392 53.0503 54.3466C52.7529 53.4633 52.2783 52.6499 51.6555 51.9564C51.0326 51.2629 50.2748 50.7039 49.4284 50.3136L49.4354 50.349ZM45.8914 59.8895C45.0833 59.8608 44.3192 59.5144 43.765 58.9255C43.4787 58.6208 43.2612 58.2583 43.1271 57.8623C42.9464 57.2831 42.9365 56.664 43.0988 56.0793C43.261 55.4946 43.5884 54.9691 44.0418 54.5659C44.4952 54.1626 45.0553 53.8987 45.6549 53.8057C46.2545 53.7128 46.8682 53.7948 47.4224 54.0419C47.7864 54.2139 48.1137 54.4545 48.3864 54.7507C48.6696 55.0564 48.8847 55.4188 49.0172 55.8139C49.1625 56.2029 49.2206 56.6191 49.1874 57.033C49.1543 57.4302 49.046 57.8174 48.8684 58.1742C48.583 58.7167 48.1501 59.1675 47.6197 59.4748C47.0892 59.782 46.4828 59.9331 45.8702 59.9107L45.8914 59.8895Z" fill="#CEDBFC"/>
<path d="M64.7481 44.9619C63.9032 44.5761 62.9901 44.3617 62.0617 44.3311C60.0287 44.2849 58.0484 44.9802 56.4906 46.2874C55.4289 47.206 54.6685 48.4231 54.3084 49.7801C53.9484 51.1371 54.0054 52.5711 54.472 53.8952C54.9386 55.2194 55.7932 56.3723 56.9245 57.2037C58.0557 58.0352 59.4112 58.5067 60.8142 58.5567H61.0907C63.026 58.5267 64.8924 57.8337 66.3783 56.5934C67.0847 55.9954 67.6629 55.2608 68.0782 54.4338C68.4936 53.6067 68.7375 52.7043 68.7954 51.7806C68.8492 50.832 68.7118 49.8823 68.3913 48.9879C68.0894 48.1078 67.613 47.2976 66.9907 46.6058C66.3683 45.914 65.6128 45.3549 64.7694 44.9619H64.7481ZM61.2041 54.4953C60.8073 54.4824 60.417 54.3909 60.0558 54.226C59.6945 54.053 59.3697 53.8124 59.0989 53.5172C58.8165 53.2096 58.5995 52.8479 58.461 52.454C58.3147 52.0627 58.2566 51.644 58.2909 51.2277C58.3241 50.8315 58.4298 50.4446 58.6028 50.0866C58.9756 49.3596 59.6159 48.8057 60.389 48.5414C60.7752 48.4037 61.1842 48.3412 61.5939 48.3571C62.001 48.3841 62.3997 48.485 62.7705 48.6548C63.1352 48.8257 63.4627 49.0665 63.7345 49.3636C64.0184 49.67 64.2356 50.0321 64.3724 50.4268C64.5188 50.818 64.5769 51.2367 64.5425 51.653C64.5094 52.0502 64.4012 52.4374 64.2236 52.7942C64.0426 53.1443 63.8028 53.4608 63.5148 53.7298C63.2033 54.0001 62.8422 54.2071 62.4516 54.3394C62.0566 54.4696 61.6403 54.5225 61.2254 54.4953H61.2041Z" fill="#CEDBFC"/>
<path d="M72.5421 54.6165L77.5037 52.8728C78.3522 52.5718 79.1241 52.0879 79.7647 51.4552C80.3832 50.8582 80.8855 50.1517 81.2461 49.3714C81.602 48.5921 81.8087 47.753 81.8557 46.8976C81.906 46.0265 81.7821 45.154 81.4913 44.3313C81.2004 43.5086 80.7484 42.7521 80.1617 42.1062C79.5852 41.4713 78.8953 40.9497 78.1274 40.5681C77.3596 40.1853 76.5286 39.9451 75.675 39.8592C74.7892 39.7754 73.8959 39.8891 73.0595 40.1924L68.0979 41.929L72.5421 54.6165ZM75.2072 49.8675L73.1516 44.027L73.4635 43.9136C73.8982 43.7608 74.3566 43.6864 74.8173 43.6939C75.2123 43.7091 75.6003 43.8031 75.9585 43.9703C76.3028 44.1442 76.6089 44.3852 76.8587 44.6791C77.1355 45.0055 77.3494 45.3804 77.4895 45.7848C77.634 46.1896 77.7059 46.6167 77.7021 47.0465C77.6975 47.4291 77.6104 47.8062 77.447 48.1522C77.2777 48.5076 77.0363 48.8238 76.7382 49.0807C76.3851 49.3913 75.9762 49.6318 75.5332 49.7895L75.2072 49.8675Z" fill="#CEDBFC"/>
<path d="M52.001 4.00049C42.5075 4.00049 33.2272 6.81564 25.3336 12.0899C17.4401 17.3643 11.2878 24.8608 7.65478 33.6317C4.02177 42.4025 3.07121 52.0537 4.9233 61.3648C6.77539 70.6759 11.347 79.2287 18.0599 85.9416C24.7728 92.6545 33.3256 97.2261 42.6367 99.0782C51.9477 100.93 61.5989 99.9797 70.3698 96.3467C79.1406 92.7137 86.6372 86.5614 91.9115 78.6678C97.1858 70.7743 100.001 61.494 100.001 52.0005C99.986 39.2747 94.924 27.0744 85.9255 18.0759C76.927 9.07744 64.7268 4.0155 52.001 4.00049ZM94.4298 52.0005C94.4312 60.3924 91.944 68.5963 87.2827 75.5746C82.6214 82.5529 75.9954 87.9922 68.2427 91.2047C60.49 94.4171 51.9587 95.2583 43.7279 93.622C35.497 91.9857 27.9363 87.9453 22.0018 82.0118C16.0673 76.0783 12.0257 68.5182 10.3879 60.2876C8.75025 52.057 9.59007 43.5257 12.8012 35.7724C16.0123 28.0191 21.4505 21.3922 28.4281 16.7298C35.4056 12.0673 43.6091 9.57875 52.001 9.57875C63.2516 9.59001 74.038 14.0648 81.9928 22.0208C89.9475 29.9768 94.4204 40.7641 94.4298 52.0147V52.0005Z" fill="#CEDBFC"/>
<path d="M80.8698 58.486C79.8798 63.3751 77.6359 67.9229 74.3582 71.6832C71.0806 75.4436 66.8817 78.2874 62.1736 79.9356C57.4654 81.5839 52.4097 81.98 47.5023 81.0851C42.5949 80.1902 38.0044 78.035 34.1811 74.8309C33.763 74.4787 33.2495 74.2587 32.706 74.199C32.1626 74.1392 31.6136 74.2424 31.1289 74.4954C30.6442 74.7483 30.2457 75.1397 29.9839 75.6197C29.7222 76.0998 29.6091 76.6468 29.659 77.1913C29.6884 77.5528 29.7901 77.9047 29.9581 78.2262C30.1261 78.5476 30.357 78.832 30.6371 79.0625C35.1938 82.8798 40.6643 85.4472 46.5123 86.5132C52.3602 87.5791 58.3848 87.107 63.9953 85.1429C69.6058 83.1789 74.6095 79.7905 78.5159 75.3099C82.4222 70.8293 85.097 65.4105 86.278 59.5846C86.423 58.8716 86.2811 58.1302 85.8831 57.5211C85.485 56.9121 84.8628 56.4845 84.1516 56.3312C83.7945 56.2556 83.426 56.2515 83.0673 56.3191C82.7086 56.3866 82.3668 56.5245 82.0617 56.7249C81.7566 56.9252 81.4942 57.184 81.2896 57.4862C81.0851 57.7885 80.9424 58.1283 80.8698 58.486Z" fill="#CEDBFC"/>
<path d="M26.1735 67.2045C26.7681 67.8692 27.4953 68.4019 28.3084 68.7682C29.1215 69.1344 30.0024 69.3261 30.8942 69.3309C31.8658 69.3287 32.8281 69.1411 33.7294 68.7781C34.3945 68.5187 35.0216 68.1706 35.5935 67.7432C36.132 67.3416 36.6095 66.8641 37.0111 66.3256C37.4339 65.7627 37.7531 65.1291 37.9538 64.4544C38.1605 63.7654 38.2492 63.0465 38.2161 62.328C38.1984 61.7785 38.1127 61.2332 37.9609 60.7048C37.792 60.1116 37.5933 59.5273 37.3655 58.9541L37.2167 58.5713L30.4476 61.2222L31.5108 63.9299L34.0908 62.9163C34.1563 63.4261 34.0409 63.9428 33.7648 64.3764C33.6294 64.5741 33.4559 64.7428 33.2545 64.8726C32.6699 65.2853 31.9713 65.5058 31.2556 65.5034C30.8857 65.4909 30.5238 65.3914 30.1995 65.2128C29.8574 65.0233 29.5581 64.7651 29.3206 64.4544C29.0257 64.0928 28.7867 63.689 28.6118 63.2565C28.4256 62.8052 28.3155 62.3262 28.2858 61.8389C28.2603 61.4245 28.3108 61.0089 28.4346 60.6127C28.5512 60.2586 28.7476 59.936 29.0087 59.67C29.2849 59.3892 29.6186 59.1716 29.9869 59.032C30.4344 58.8427 30.9293 58.7957 31.4045 58.8974C31.6927 58.9677 31.9646 59.0928 32.2054 59.2659L35.1186 56.3528C34.3235 55.7399 33.3879 55.3355 32.3968 55.1762C31.1396 55.0076 29.8602 55.1764 28.6898 55.6652C27.7657 55.9992 26.914 56.5068 26.1806 57.1608C25.5229 57.7573 24.9925 58.4806 24.6213 59.2872C24.265 60.1051 24.0862 60.9893 24.0968 61.8814C24.1427 63.8297 24.8787 65.6984 26.1735 67.1549V67.2045Z" fill="#CEDBFC"/>
<rect x="2" y="2" width="100" height="100" rx="50" stroke="#002891" stroke-width="4"/>
</svg>
