<svg width="104" height="104" viewBox="0 0 104 104" fill="none" xmlns="http://www.w3.org/2000/svg">
<rect x="2.00012" y="2" width="100" height="100" rx="50" fill="#020F30" stroke="#020F30" stroke-width="4"/>
<path d="M25.5001 41.5L43.0001 30L62.5001 25L73.5001 37.5L75.5001 51.5L79.0001 64.5L62.5001 80L36.5001 77.5L31.0001 67L28.0001 60.5L25.5001 41.5Z" fill="#CEDBFC"/>
<circle cx="52.0001" cy="52" r="35.5" stroke="#CEDBFC" stroke-width="3"/>
<path d="M52.4563 38.7066C52.3818 38.626 52.2884 38.5651 52.1846 38.5295C51.8843 38.4626 51.5704 38.4961 51.2909 38.6249L51.1554 38.6701L51.6876 40.1763L51.8231 40.1261C52.1208 40.0453 52.3837 39.8689 52.5712 39.624C52.6294 39.53 52.6634 39.4231 52.6704 39.3127C52.6775 39.2024 52.6572 39.092 52.6114 38.9914C52.584 38.8851 52.5307 38.7872 52.4563 38.7066Z" fill="#2C64F2"/>
<path d="M45.827 56.9056C46.2196 57.3227 46.7608 57.5681 47.3333 57.5884L47.3182 57.6034C47.7521 57.6193 48.1817 57.5123 48.5574 57.2946C48.9332 57.077 49.2398 56.7577 49.4419 56.3734C49.5677 56.1207 49.6444 55.8464 49.6679 55.565C49.6914 55.2718 49.6503 54.977 49.5474 54.7015C49.4534 54.4216 49.3011 54.1649 49.1005 53.9484C48.9074 53.7386 48.6755 53.5681 48.4177 53.4463C48.0252 53.2713 47.5905 53.2132 47.1657 53.2791C46.741 53.3449 46.3443 53.5318 46.0231 53.8175C45.702 54.1031 45.47 54.4753 45.3551 54.8895C45.2402 55.3037 45.2472 55.7422 45.3752 56.1525C45.4702 56.4329 45.6243 56.6898 45.827 56.9056Z" fill="#2C64F2"/>
<path d="M58.1797 53.7675C57.8987 53.7584 57.6222 53.6935 57.3664 53.5767C57.1104 53.4542 56.8804 53.2838 56.6886 53.0747C56.4885 52.8568 56.3348 52.6006 56.2367 52.3216C56.1331 52.0444 56.0919 51.7478 56.1162 51.453C56.1397 51.1723 56.2146 50.8983 56.3372 50.6447C56.6012 50.1297 57.0548 49.7374 57.6024 49.5501C57.8759 49.4527 58.1657 49.4083 58.4559 49.4196C58.7442 49.4387 59.0266 49.5102 59.2893 49.6305C59.5476 49.7515 59.7796 49.9221 59.9721 50.1325C60.1732 50.3496 60.3271 50.6061 60.424 50.8856C60.5276 51.1628 60.5688 51.4594 60.5445 51.7542C60.521 52.0355 60.4444 52.3098 60.3185 52.5625C60.1903 52.8106 60.0205 53.0347 59.8165 53.2253C59.5959 53.4167 59.3401 53.5634 59.0634 53.6571C58.7836 53.7493 58.4887 53.7868 58.1948 53.7675H58.1797Z" fill="#2C64F2"/>
<path d="M66.6426 46.3525L68.0986 50.4895L68.3295 50.4343C68.6433 50.3226 68.933 50.1522 69.183 49.9322C69.3942 49.7502 69.5652 49.5262 69.6851 49.2745C69.8009 49.0294 69.8625 48.7623 69.8659 48.4913C69.8685 48.1868 69.8176 47.8843 69.7152 47.5976C69.616 47.3111 69.4645 47.0455 69.2684 46.8144C69.0915 46.6062 68.8747 46.4354 68.6308 46.3123C68.377 46.1939 68.1022 46.1273 67.8224 46.1165C67.4961 46.1112 67.1714 46.1639 66.8635 46.2721L66.6426 46.3525Z" fill="#2C64F2"/>
<path fill-rule="evenodd" clip-rule="evenodd" d="M52.0001 86C70.7778 86 86.0001 70.7777 86.0001 52C86.0001 33.2223 70.7778 18 52.0001 18C33.2224 18 18.0001 33.2223 18.0001 52C18.0001 70.7777 33.2224 86 52.0001 86ZM61.3987 42.5821L64.13 41.6231L62.6489 37.4058L64.3057 31.5115L61.0272 32.6713L60.3594 35.2368L58.2156 33.6604L54.9371 34.8151L59.9126 38.3697L61.3987 42.5821ZM52.6164 42.7971L53.5151 45.3626L50.7838 46.3718L47.6359 37.435L51.301 36.1447C51.7507 35.9784 52.2273 35.8967 52.7067 35.9037C53.1162 35.9117 53.519 36.0094 53.8866 36.1899C54.2315 36.3639 54.536 36.6085 54.7803 36.9078C55.0299 37.2062 55.2254 37.5461 55.3577 37.9119C55.601 38.5182 55.6311 39.1892 55.443 39.8148C55.2842 40.2826 54.9929 40.6942 54.6046 40.9997L58.591 43.5953L55.1669 44.8053L52.6164 42.7971ZM48.6538 47.0698L47.8104 44.6749L45.2197 45.5837L44.9084 44.695L47.3535 43.8314L46.505 41.4316L44.0599 42.2951L43.7637 41.4466L46.3544 40.5329L45.5059 38.133L40.184 40.0107L43.3319 48.9475L48.6538 47.0698ZM38.2661 50.7299L38.8886 40.4677L35.9164 41.512L35.7005 46.7937L32.2312 42.8073L29.259 43.8566L36.1624 51.473L38.2661 50.7299ZM47.9257 50.3837C48.5884 50.4028 49.2406 50.5548 49.8436 50.8305L49.8386 50.8054C50.4381 51.0819 50.9749 51.4779 51.4161 51.9691C51.8572 52.4603 52.1935 53.0365 52.4041 53.6622C52.6363 54.2945 52.7337 54.9682 52.6903 55.6404C52.6496 56.2934 52.4774 56.9316 52.1841 57.5165C51.8907 58.1014 51.4823 58.6211 50.9833 59.0444C50.4397 59.5096 49.8127 59.8673 49.1357 60.0987C48.5269 60.319 47.8852 60.4345 47.2379 60.4401H47.027C46.3675 60.4163 45.7192 60.2628 45.1191 59.9883C44.5349 59.7143 44.0109 59.3269 43.5778 58.8486C43.1297 58.3505 42.788 57.7662 42.5737 57.1315C42.3466 56.498 42.2493 55.8252 42.2875 55.1533C42.3302 54.5058 42.5018 53.8733 42.7924 53.2931C43.0829 52.7128 43.4865 52.1965 43.9794 51.7744C44.5227 51.306 45.1519 50.9479 45.8321 50.7201C46.5028 50.4783 47.2129 50.3642 47.9257 50.3837ZM60.6901 47.0147C60.0916 46.7414 59.4448 46.5895 58.7872 46.5679C57.3472 46.5351 55.9444 47.0277 54.841 47.9536C54.089 48.6043 53.5503 49.4664 53.2953 50.4276C53.0403 51.3888 53.0807 52.4045 53.4112 53.3425C53.7417 54.2804 54.3471 55.097 55.1484 55.686C55.9497 56.2749 56.9098 56.6089 57.9036 56.6444H58.0994C59.4703 56.6231 60.7923 56.1322 61.8448 55.2536C62.3452 54.8301 62.7547 54.3097 63.0489 53.7239C63.3431 53.1381 63.5159 52.4989 63.5569 51.8446C63.595 51.1727 63.4977 50.5 63.2707 49.8665C63.0568 49.243 62.7194 48.6691 62.2786 48.1791C61.8377 47.6891 61.3026 47.2931 60.7051 47.0147H60.6901ZM69.7253 52.6183L66.2108 53.8533L63.0628 44.8663L66.5773 43.6363C67.1698 43.4215 67.8025 43.3409 68.4299 43.4003C69.0346 43.4611 69.6232 43.6313 70.1671 43.9024C70.711 44.1727 71.1997 44.5422 71.608 44.9919C72.0236 45.4494 72.3438 45.9852 72.5498 46.568C72.7558 47.1508 72.8436 47.7687 72.808 48.3858C72.7747 48.9917 72.6282 49.5861 72.3762 50.138C72.1208 50.6908 71.7649 51.1913 71.3269 51.6141C70.8731 52.0622 70.3263 52.4051 69.7253 52.6183ZM72.1096 56.5943C71.4083 60.0574 69.8189 63.2787 67.4972 65.9423C65.1755 68.6059 62.2014 70.6202 58.8664 71.7878C55.5315 72.9553 51.9503 73.2358 48.4743 72.6019C44.9982 71.968 41.7466 70.4415 39.0384 68.1719C38.7422 67.9224 38.3785 67.7666 37.9936 67.7243C37.6086 67.6819 37.2198 67.755 36.8764 67.9342C36.5331 68.1134 36.2508 68.3906 36.0654 68.7307C35.88 69.0707 35.7999 69.4581 35.8352 69.8438C35.8561 70.0999 35.9281 70.3492 36.0471 70.5769C36.1661 70.8046 36.3297 71.006 36.5281 71.1693C39.7557 73.8732 43.6307 75.6918 47.773 76.4469C51.9153 77.2019 56.1827 76.8674 60.1568 75.4762C64.1309 74.0851 67.6752 71.6849 70.4422 68.5112C73.2092 65.3375 75.1038 61.4991 75.9404 57.3725C76.0431 56.8674 75.9426 56.3422 75.6606 55.9108C75.3787 55.4794 74.938 55.1766 74.4342 55.068C74.1812 55.0144 73.9202 55.0115 73.6661 55.0593C73.4121 55.1072 73.17 55.2049 72.9539 55.3468C72.7378 55.4887 72.5519 55.672 72.407 55.8861C72.2621 56.1002 72.161 56.3409 72.1096 56.5943ZM34.8786 63.8774C34.3026 63.618 33.7875 63.2407 33.3664 62.7699V62.7347C32.4492 61.7031 31.9279 60.3794 31.8953 58.9993C31.8878 58.3674 32.0145 57.7411 32.2669 57.1618C32.5298 56.5904 32.9055 56.0781 33.3714 55.6556C33.8909 55.1924 34.4941 54.8328 35.1487 54.5962C35.9778 54.2499 36.884 54.1304 37.7745 54.2498C38.4766 54.3626 39.1393 54.6491 39.7025 55.0832L37.639 57.1467C37.4684 57.0241 37.2757 56.9354 37.0716 56.8856C36.7351 56.8136 36.3845 56.8469 36.0675 56.981C35.8066 57.0799 35.5703 57.234 35.3746 57.4329C35.1897 57.6214 35.0505 57.8498 34.968 58.1006C34.8802 58.3813 34.8445 58.6757 34.8625 58.9692C34.8836 59.3144 34.9616 59.6537 35.0935 59.9734C35.2174 60.2797 35.3866 60.5658 35.5956 60.8218C35.7638 61.0419 35.9758 61.2248 36.2181 61.3591C36.4478 61.4856 36.7041 61.5561 36.9662 61.5649C37.4731 61.5666 37.968 61.4105 38.382 61.1181C38.5247 61.0261 38.6476 60.9067 38.7435 60.7666C38.9391 60.4595 39.0208 60.0935 38.9745 59.7324L37.1469 60.4503L36.3938 58.5324L41.1886 56.6547L41.294 56.9258C41.4553 57.3318 41.5961 57.7457 41.7158 58.1659C41.8233 58.5402 41.884 58.9264 41.8965 59.3156C41.9199 59.8246 41.8571 60.3338 41.7107 60.8218C41.5685 61.2998 41.3424 61.7486 41.043 62.1473C40.7585 62.5287 40.4203 62.8669 40.0388 63.1514C39.6337 63.4541 39.1896 63.7007 38.7184 63.8845C38.08 64.1416 37.3984 64.2745 36.7101 64.2761C36.0785 64.2727 35.4545 64.1369 34.8786 63.8774Z" fill="#2C64F2"/>
<rect x="2.00012" y="2" width="100" height="100" rx="50" stroke="#020F30" stroke-width="4"/>
</svg>
