<svg width="184" height="73" viewBox="0 0 184 73" fill="none" xmlns="http://www.w3.org/2000/svg">
<path d="M13.0113 33.2335L20.8968 14.5193L14.697 14.505L10.8256 24.1764L7.01138 14.4907H0.797211L8.61136 33.2335H13.0113Z" fill="#2A48DF"/>
<path d="M34.5337 28.1908L29.1195 28.1765V26.3194L34.2337 26.3336V21.3194L29.1338 21.3051V19.548H34.5479V14.548L23.4339 14.5194L23.4053 33.2336H34.5194L34.5337 28.1908Z" fill="#2A48DF"/>
<path d="M44.6792 27.8767L48.122 33.2481H55.2647L49.5505 25.8053C50.4693 25.4944 51.2781 24.9237 51.8791 24.1624C52.6387 23.125 53.0262 21.8617 52.979 20.5767C52.9841 19.7864 52.8436 19.002 52.5648 18.2625C52.3005 17.525 51.8786 16.8541 51.3284 16.2965C50.7782 15.7389 50.1129 15.308 49.3791 15.0339C48.4932 14.7038 47.553 14.5439 46.6077 14.5625H38.9936V33.2481H44.7078L44.6792 27.8767ZM44.6792 19.2196H44.9649C45.5695 19.1747 46.172 19.3304 46.6792 19.6625C46.8461 19.7998 46.9775 19.9754 47.062 20.1744C47.1466 20.3733 47.1819 20.5898 47.1649 20.8053C47.1827 21.0223 47.1464 21.2404 47.0591 21.4398C46.9718 21.6393 46.8364 21.814 46.6649 21.9482C46.1571 22.2656 45.5625 22.4156 44.9649 22.3767H44.6792V19.2196Z" fill="#2A48DF"/>
<path d="M66.8515 33.2469L66.8658 24.4469L73.8228 14.6041L66.9658 14.5899L64.0373 18.9184L61.0945 14.5756H54.2518L61.1516 24.4469L61.1374 33.2469H66.8515Z" fill="#2A48DF"/>
<path d="M42.1345 53.0907C42.6539 51.8717 42.9165 50.5587 42.9059 49.2336C42.9158 47.9054 42.6583 46.5888 42.1488 45.3622C41.6529 44.189 40.9294 43.1257 40.0203 42.2336C39.0797 41.3273 37.9675 40.6182 36.7489 40.1479C35.4433 39.6355 34.0515 39.3784 32.649 39.3908C31.2479 39.3794 29.8571 39.6314 28.5491 40.1337C27.348 40.5941 26.2521 41.2918 25.3268 42.1853C24.4014 43.0787 23.6657 44.1495 23.1634 45.3336C22.6505 46.5547 22.3882 47.8664 22.392 49.1908C22.3848 50.5187 22.6422 51.8348 23.1492 53.0622C23.6506 54.2281 24.3735 55.2858 25.2777 56.1764C26.2031 57.0915 27.3069 57.8063 28.5205 58.2764C29.8326 58.7833 31.2281 59.0401 32.6347 59.0336C34.031 59.0435 35.4169 58.7915 36.7203 58.2907C37.9365 57.8157 39.0479 57.1072 39.9917 56.205C40.9062 55.32 41.6347 54.2612 42.1345 53.0907V53.0907ZM36.6489 50.905C36.4238 51.4127 36.0982 51.8695 35.6918 52.2479C35.2788 52.6382 34.7935 52.9439 34.2632 53.1479C33.728 53.3468 33.1628 53.4531 32.5918 53.4622C32.0185 53.4637 31.4505 53.352 30.9204 53.1336C30.3905 52.9356 29.9049 52.6345 29.4919 52.2479C29.0863 51.8387 28.7658 51.3532 28.5491 50.8193C28.3506 50.3051 28.2583 49.7559 28.2776 49.205C28.2742 48.624 28.396 48.0491 28.6348 47.5193C29.085 46.4991 29.9152 45.6945 30.949 45.2765C31.4804 45.064 32.0481 44.9573 32.6204 44.9622V44.9622C33.7633 44.9513 34.8653 45.387 35.6918 46.1765C36.0939 46.5555 36.4147 47.0124 36.6346 47.5193C36.8671 48.0556 36.984 48.6349 36.9775 49.2193C36.9886 49.7982 36.8766 50.3728 36.6489 50.905V50.905Z" fill="#2A48DF"/>
<path d="M64.7776 53.1196C65.297 51.9005 65.5596 50.5875 65.549 49.2624C65.5574 47.939 65.2999 46.6274 64.7919 45.4053C64.296 44.2321 63.5725 43.1688 62.6634 42.2768C61.7195 41.3746 60.6081 40.666 59.392 40.191C58.0817 39.6775 56.685 39.4204 55.2778 39.4339V39.4339C53.876 39.4145 52.4837 39.6668 51.1779 40.1768C49.9633 40.6399 48.8553 41.3446 47.9208 42.2482C46.9956 43.1611 46.261 44.2488 45.7596 45.448C45.2582 46.6472 45 47.9341 45 49.2339C45 50.5337 45.2582 51.8205 45.7596 53.0197C46.261 54.2189 46.9956 55.3066 47.9208 56.2195C48.8424 57.1222 49.9352 57.8313 51.135 58.3052C52.4452 58.8188 53.842 59.0759 55.2492 59.0624C56.646 59.0782 58.033 58.826 59.3348 58.3195C60.5536 57.8563 61.6663 57.1517 62.6062 56.2481C63.5344 55.363 64.2731 54.2987 64.7776 53.1196ZM59.292 50.9481C59.0668 51.4558 58.7413 51.9126 58.3349 52.291C57.9219 52.6813 57.4366 52.987 56.9063 53.191C56.3725 53.3932 55.8058 53.4949 55.2349 53.491C54.6614 53.5114 54.0905 53.4041 53.5635 53.1767C53.0335 52.9787 52.548 52.6776 52.135 52.291C51.7327 51.8791 51.4128 51.3942 51.1921 50.8624C50.9596 50.3262 50.8428 49.7469 50.8493 49.1624C50.8421 48.581 50.9641 48.0053 51.2064 47.4767C51.4263 46.9698 51.7471 46.5129 52.1493 46.1339C52.5611 45.7421 53.0467 45.4362 53.5778 45.2339C54.1112 45.0284 54.6776 44.9218 55.2492 44.9196V44.9196C55.8224 44.9196 56.3901 45.0312 56.9206 45.2482C57.4474 45.4526 57.9318 45.7529 58.3492 46.1339C58.7563 46.5418 59.077 47.0277 59.292 47.5624C59.5219 48.0972 59.6405 48.6732 59.6405 49.2553C59.6405 49.8374 59.5219 50.4134 59.292 50.9481V50.9481Z" fill="#2A48DF"/>
<path d="M82.2808 55.7759C83.1146 54.9122 83.7786 53.8994 84.2379 52.7902C84.7018 51.6712 84.9444 50.4729 84.9522 49.2616C84.9526 48.0403 84.7098 46.8311 84.2379 45.7045C83.7676 44.6063 83.0994 43.6039 82.2665 42.7474C81.4503 41.8938 80.4812 41.2008 79.4094 40.7045C78.2806 40.1848 77.0522 39.9167 75.8095 39.9188H68.4953V58.5902H75.8238C77.0652 58.5941 78.2929 58.331 79.4237 57.8187C80.4912 57.3151 81.459 56.6231 82.2808 55.7759ZM78.7237 51.0188C78.5415 51.5212 78.2541 51.9791 77.8809 52.3616C77.4731 52.7551 76.9861 53.057 76.4523 53.2473C75.8498 53.4736 75.2102 53.585 74.5667 53.5759H74.0809V45.0045H74.5524C75.1913 44.9955 75.8261 45.107 76.4238 45.3331C76.9383 45.5223 77.4048 45.8227 77.79 46.2129C78.1752 46.603 78.4696 47.0733 78.6523 47.5902C78.8572 48.1482 78.9588 48.7387 78.9523 49.3331C78.9765 49.9134 78.8992 50.4936 78.7237 51.0474V51.0188Z" fill="#2A48DF"/>
<path d="M3.47915 56.2486C4.36274 57.123 5.41172 57.8126 6.56481 58.2771C7.82199 58.7627 9.15996 59.0051 10.5076 58.9914V58.9914C11.5061 58.9954 12.5006 58.8657 13.4647 58.6057C14.3919 58.3551 15.2775 57.97 16.0932 57.4629C16.927 56.9618 17.6667 56.3188 18.2789 55.5629C18.8993 54.7679 19.3822 53.8746 19.7074 52.92C19.9606 52.1943 20.1284 51.4417 20.2074 50.6772C20.2074 49.9057 20.3217 49.0343 20.3217 48.0915V47.5058H10.079V51.5772H13.9932C13.8177 52.273 13.4031 52.8849 12.8218 53.3057C12.5386 53.4932 12.2241 53.6287 11.8933 53.7057C10.9181 53.9344 9.89629 53.8597 8.96477 53.4914C8.49156 53.2832 8.07156 52.9707 7.73622 52.5772C7.39549 52.1533 7.13854 51.6685 6.97908 51.1486C6.79491 50.5325 6.70816 49.8915 6.72195 49.2486C6.7049 48.5576 6.79649 47.8683 6.99337 47.2058C7.17607 46.6552 7.45677 46.1422 7.82193 45.6915C8.15841 45.2956 8.57783 44.9786 9.05048 44.7629C9.55673 44.5325 10.1087 44.4202 10.6647 44.4343V44.4343C11.3316 44.4209 11.9876 44.6048 12.5504 44.9629C12.8915 45.2048 13.1825 45.5105 13.4075 45.8629L18.7074 43.5344C17.9884 42.3225 16.9765 41.3106 15.7646 40.5915C14.2083 39.7356 12.4549 39.3022 10.679 39.3344C9.29883 39.304 7.92586 39.5417 6.63623 40.0344C5.46285 40.479 4.39319 41.1597 3.49344 42.0344C2.61044 42.9192 1.92407 43.9804 1.47919 45.1486C1.00156 46.413 0.759472 47.7542 0.764917 49.1058C0.751306 50.4673 0.993599 51.8193 1.47919 53.0914C1.92391 54.269 2.60447 55.3434 3.47915 56.2486V56.2486Z" fill="#2A48DF"/>
<path d="M99.4429 21.7268C99.4429 13.7238 105.931 7.23608 113.934 7.23608H168.745C176.748 7.23608 183.236 13.7238 183.236 21.7268V50.7268C183.236 58.7298 176.748 65.2175 168.745 65.2175H99.4429V21.7268Z" fill="#CEDBFC"/>
<path d="M122.686 46.0746C120.986 46.0746 119.537 45.6399 118.339 44.7704C117.16 43.901 116.252 42.6838 115.614 41.1188C114.996 39.5344 114.687 37.699 114.687 35.6123C114.687 33.5063 114.996 31.6708 115.614 30.1058C116.252 28.5215 117.17 27.2946 118.368 26.4252C119.566 25.5364 121.005 25.0921 122.686 25.0921C124.869 25.0921 126.608 25.691 127.903 26.8889C129.197 28.0675 129.951 29.6711 130.163 31.6998H126.772C126.598 30.6372 126.164 29.7581 125.468 29.0625C124.792 28.3476 123.855 27.9902 122.657 27.9902C121.131 27.9902 119.942 28.6664 119.092 30.0189C118.242 31.3714 117.817 33.2358 117.817 35.6123C117.817 37.9695 118.242 39.8243 119.092 41.1767C119.942 42.5099 121.131 43.1764 122.657 43.1764C123.894 43.1764 124.84 42.8576 125.497 42.2201C126.154 41.5631 126.579 40.7034 126.772 39.6407H130.163C129.854 41.6308 129.072 43.2054 127.816 44.3647C126.56 45.5046 124.85 46.0746 122.686 46.0746ZM133.659 45.7268V25.4398H136.731V42.9736H146.729V45.7268H133.659ZM151.442 45.7268V43.0026H155.847V28.1641H151.5V25.4398H163.266V28.1641H158.919V43.0026H163.324V45.7268H151.442Z" fill="#002891"/>
</svg>
