<svg width="1000" height="990" viewBox="0 0 1000 990" fill="none" xmlns="http://www.w3.org/2000/svg">
<path d="M561.574 497.959C563.225 497.959 564.955 497.959 566.607 498.436H568.966C580.437 498.428 591.676 495.165 601.406 489.016C611.137 482.867 618.969 474.08 624.013 463.652C624.946 461.55 625.428 459.271 625.428 456.966C625.428 454.661 624.946 452.382 624.013 450.28C623.136 448.164 621.818 446.264 620.149 444.712C618.479 443.159 616.498 441.99 614.34 441.285C612.744 440.744 611.07 440.475 609.386 440.489C606.365 440.467 603.401 441.325 600.848 442.963C598.296 444.6 596.264 446.947 594.995 449.723C592.579 454.665 588.847 458.826 584.221 461.737C579.594 464.648 574.256 466.193 568.809 466.199H567.708C561.389 465.985 555.325 463.631 550.486 459.513C547.548 457.106 543.886 455.786 540.106 455.772C536.105 455.766 532.253 457.303 529.332 460.07C527.657 461.619 526.333 463.517 525.451 465.633C524.568 467.749 524.149 470.033 524.221 472.328C524.311 474.631 524.875 476.89 525.877 478.96C526.879 481.029 528.297 482.864 530.04 484.347C539.027 491.88 549.982 496.609 561.574 497.959V497.959Z" fill="black"/>
<path d="M927.972 291.886C896.29 242.067 855.167 199.097 806.98 165.46C758.794 131.824 704.498 108.187 647.233 95.9175L642.436 94.9623C641.232 94.8836 640.023 94.8836 638.819 94.9623L628.124 38.0503C626.089 26.9738 620.155 17.0198 611.423 10.0335C602.69 3.04719 591.752 -0.497551 580.634 0.0563451C569.517 0.610241 558.975 5.22521 550.963 13.0458C542.951 20.8663 538.011 31.362 537.061 42.5873L533.129 86.6842C408.959 92.0968 289.35 148.054 210.712 246.277C205.08 253.83 200.306 262 196.478 270.634C176.662 275.68 159.251 287.664 147.33 304.462C143.389 303.986 139.424 303.747 135.455 303.746C116.506 303.696 97.958 309.272 82.1077 319.784C66.2574 330.296 53.8007 345.282 46.2794 362.887L45.4144 365.036C41.2231 374.9 41.0071 386.032 44.8124 396.055C48.6177 406.079 56.1428 414.199 65.7817 418.684L81.5093 425.848L67.0399 475.437C53.6714 472.015 39.1233 468.512 31.0235 473.845C22.9238 479.178 19.6997 490.959 15.8464 502.58L13.094 515.077C12.7817 516.522 12.5454 517.984 12.3863 519.455C7.90389 559.253 33.54 592.366 74.6678 599.052L113.987 605.738C113.83 607.725 113.83 609.721 113.987 611.708C125.699 681.44 153.378 747.428 194.809 804.388C236.239 861.348 290.27 907.699 352.575 939.728C358.395 942.753 386.704 955.648 394.175 958.274C415.78 966.951 438.024 973.897 460.703 979.049C491.334 985.675 522.567 989.036 553.889 989.078C666.699 989.027 775.279 945.611 857.669 867.613C866.083 859.653 892.348 831.396 899.74 822.322C959.294 748.322 994.113 657.104 999.186 561.798C1004.26 466.491 979.325 372.014 927.972 291.966V291.886ZM577.481 45.9304C577.558 44.5797 578.126 43.3054 579.075 42.3521C580.023 41.3987 581.286 40.8333 582.621 40.7643C583.956 40.6952 585.269 41.1274 586.309 41.978C587.348 42.8285 588.041 44.0375 588.254 45.3732L611.846 169.545C611.846 169.545 574.099 162.222 569.617 138.343L577.481 45.9304ZM565.842 179.017C568.572 181.895 571.517 184.556 574.65 186.977C581.732 192.374 589.726 196.42 598.241 198.916C603.223 200.417 608.329 201.456 613.497 202.021H617.115L636.931 268.723C624.656 268.668 612.583 265.551 601.78 259.649C589.208 254.021 578.211 245.324 569.774 234.337C567.807 231.577 565.996 228.707 564.348 225.741L562.146 221.761L560.338 218.099L565.842 179.017ZM553.732 287.747L556.799 260.127C558.529 262.515 560.495 264.823 562.54 267.131C564.584 269.44 566.786 271.827 569.067 274.056C584.929 289.997 605.667 300.016 627.888 302.472C630.562 302.472 633.314 302.632 636.145 302.95C638.976 302.95 641.886 302.95 644.795 302.95L667.758 386.448C667.845 386.781 667.818 387.135 667.68 387.45C667.541 387.765 667.301 388.023 666.998 388.181C666.695 388.339 666.348 388.388 666.014 388.318C665.68 388.249 665.38 388.066 665.162 387.801C660.174 381.412 654.355 375.735 647.862 370.926C644.85 368.77 641.726 366.777 638.504 364.956L594.545 340.361L550.665 315.845L553.732 287.747ZM500.966 391.94L524.557 349.674L620.732 404.198C626.552 407.476 631.657 411.912 635.739 417.24C639.821 422.567 642.797 428.675 644.486 435.196C646.176 441.717 646.545 448.517 645.571 455.187C644.597 461.856 642.3 468.257 638.819 474.005L630.955 487.536C622.089 502.08 607.97 512.552 591.598 516.728C575.226 520.905 557.89 518.456 543.273 509.903L530.062 501.943C511.908 491.152 498.679 473.563 493.235 452.979C487.79 432.395 490.567 410.468 500.966 391.94ZM363.821 354.29L385.839 315.845C389.691 309.11 395.409 303.665 402.285 300.185C409.162 296.705 416.895 295.342 424.529 296.264C429.673 296.843 434.648 298.468 439.156 301.04L517.794 345.694L363.821 354.29ZM538.869 127.358C536.904 144.551 535.409 156.73 535.331 156.73L528.804 198.996L517.559 297.617L459.366 264.584C450.139 259.282 439.948 255.925 429.405 254.714C413.81 252.817 398.007 255.572 383.939 262.643C369.87 269.714 358.149 280.791 350.216 294.513L325.917 337.575C325.917 337.575 284.082 278.593 241.853 272.544C278.633 228.731 324.054 193.183 375.203 168.181C426.352 143.179 482.1 129.274 538.869 127.358ZM370.819 903.511C314.199 874.283 265.109 832.066 227.467 780.228C189.825 728.39 164.672 668.365 154.014 604.942L200.096 613.618C244.779 622.022 287.692 638.179 326.939 661.377C345.97 672.6 362.798 682.709 365.787 685.256L380.885 696.957C405.332 715.835 433.001 730 462.512 738.745C462.512 738.745 410.768 832.988 370.819 903.511ZM830.067 837.446C755.061 908.18 656.404 947.59 553.889 947.768C504.218 947.728 454.98 938.419 408.645 920.306L507.414 747.74C540.206 752.038 564.034 744.874 581.413 723.86C584.379 721.181 586.195 717.436 586.474 713.422C586.753 709.408 585.473 705.442 582.907 702.369C572.841 688.519 557.114 701.653 557.114 701.653C540.914 712.796 530.219 714.547 506.785 709.612C470.473 702.144 436.286 686.501 406.757 663.844L390.007 650.79C374.334 638.65 357.592 627.992 339.993 618.951L333.624 615.688C305.691 602.016 275.985 592.422 245.391 587.192L81.352 559.094C73.4882 557.82 49.8967 551.134 52.6491 524.23L55.4014 511.654C93.7865 524.518 133.278 533.712 173.359 539.115L187.042 541.185C194.906 542.379 202.77 543.413 210.633 544.289C234.372 547.273 258.273 548.735 282.194 548.667C287.163 548.511 292.086 547.654 296.821 546.12L307.516 542.777C319.178 539.304 329.415 532.098 336.691 522.241C342.169 514.731 345.695 505.948 346.945 496.699C348.195 487.45 347.13 478.032 343.847 469.308C340.235 459.929 334.225 451.691 326.431 445.439C318.637 439.186 309.34 435.145 299.495 433.728C273.78 432.853 132.231 409.849 81.4307 388.199L84.183 379.602C89.7354 366.455 99.9545 355.893 112.824 349.999C125.693 344.104 140.278 343.307 153.699 347.763L159.912 349.833C161.687 350.265 163.552 350.112 165.235 349.396C166.918 348.68 168.332 347.439 169.27 345.853L172.337 340.042C176.259 332.637 181.706 326.17 188.309 321.077C194.912 315.984 202.518 312.384 210.612 310.521C218.707 308.657 227.103 308.573 235.232 310.274C243.362 311.976 251.036 315.422 257.738 320.382C260.95 322.734 263.926 325.4 266.624 328.342L268.511 330.331C269.267 331.001 269.952 331.747 270.556 332.56L308.066 377.612C311.115 381.25 314.948 384.132 319.269 386.037C323.591 387.941 328.286 388.817 332.994 388.597L468.488 382.547C456.251 408.368 454.042 437.9 462.3 465.291C470.558 492.682 488.681 515.934 513.076 530.439L526.445 538.399C537.954 545.187 550.724 549.495 563.955 551.055C582.407 553.196 601.079 549.977 617.79 541.774C634.5 533.57 648.559 520.721 658.321 504.729L762.674 328.342L749.227 535.294L829.517 837.764L830.067 837.446ZM106.359 485.546L120.357 435.002C140.409 439.778 165.495 445.429 191.131 450.921L205.05 453.707C255.221 462.861 295.091 466.363 295.091 466.363C299.041 466.983 302.758 468.649 305.866 471.194C308.973 473.738 311.36 477.07 312.784 480.85C314.914 486.406 314.914 492.567 312.784 498.123C311.133 502.739 306.965 513.166 286.441 514.042C257.659 516.271 177.763 504.729 106.359 485.546ZM862.466 803.935C862.466 802.025 787.838 531.076 787.838 531.315L800.027 295.627C799.13 289.046 796.222 282.913 791.709 278.089C787.197 273.264 781.306 269.99 774.863 268.723L772.268 268.325C766.241 267.64 760.147 268.733 754.719 271.473C749.292 274.213 744.763 278.482 741.677 283.767L697.011 359.862L634.1 135.239L638.268 136.035C706.125 150.681 769.132 182.715 821.255 229.068C873.378 275.422 912.871 334.543 935.955 400.772C959.038 467 964.938 538.118 953.089 607.315C941.241 676.513 912.041 741.473 868.285 795.976" fill="black"/>
</svg>
