<svg width="1000" height="988" viewBox="0 0 1000 988" fill="none" xmlns="http://www.w3.org/2000/svg">
<path d="M621.15 140.247L595.459 5.02681C595.227 3.57227 594.473 2.25567 593.341 1.32946C592.209 0.403249 590.779 -0.0673886 589.325 0.00779724C587.871 0.0829831 586.496 0.698679 585.463 1.73686C584.43 2.77504 583.812 4.16264 583.728 5.63357L575.164 106.268C580.045 132.272 621.15 140.247 621.15 140.247Z" fill="white"/>
<path d="M569.866 201.439C571.66 204.669 573.633 207.795 575.775 210.8C584.938 222.753 596.883 232.223 610.542 238.364C622.324 244.835 635.503 248.259 648.907 248.332L627.669 175.695H623.73C618.103 175.08 612.542 173.948 607.117 172.314C597.844 169.596 589.139 165.19 581.427 159.312C578.015 156.676 574.808 153.779 571.836 150.645L565.927 193.204L567.896 197.191L569.866 201.439Z" fill="white"/>
<path d="M650.566 352.52C654.075 354.503 657.476 356.673 660.757 359.021C667.82 364.236 674.132 370.421 679.511 377.397C679.704 377.788 680.042 378.085 680.452 378.223C680.861 378.361 681.308 378.329 681.694 378.134C682.081 377.939 682.374 377.596 682.511 377.181C682.647 376.767 682.615 376.314 682.422 375.924L657.417 284.997C654.249 284.997 651.08 284.997 647.997 284.997C644.914 284.997 641.917 284.997 639.006 284.477C614.863 281.921 592.286 271.167 574.951 253.966C572.468 251.539 570.07 249.025 567.843 246.425C565.617 243.824 563.476 241.397 561.592 238.797L558.252 268.875L554.913 298.952L602.697 325.65L650.566 352.52Z" fill="white"/>
<path d="M786.39 313.162L672.753 505.243C662.122 522.658 646.813 536.65 628.616 545.584C610.418 554.517 590.084 558.023 569.991 555.691C555.583 553.993 541.677 549.3 529.144 541.909L514.586 533.241C488.02 517.445 468.285 492.124 459.293 462.296C450.3 432.468 452.705 400.309 466.031 372.19L318.483 378.778C313.356 379.018 308.243 378.064 303.537 375.99C298.831 373.916 294.657 370.778 291.337 366.816L250.489 317.756C249.832 316.871 249.086 316.057 248.263 315.329L246.207 313.162C243.27 309.959 240.029 307.056 236.531 304.494C229.233 299.093 220.876 295.34 212.023 293.487C203.17 291.635 194.028 291.726 185.213 293.756C176.398 295.785 168.116 299.705 160.925 305.251C153.735 310.797 147.803 317.839 143.532 325.904L140.192 332.231C139.152 334.205 137.454 335.742 135.399 336.567C133.345 337.393 131.068 337.453 128.974 336.739L122.209 334.485C107.593 329.632 91.7107 330.501 77.6966 336.919C63.6824 343.338 52.5541 354.84 46.5077 369.157L43.5105 378.518C98.8304 401.835 252.973 427.145 280.975 428.099C291.697 429.641 301.82 434.042 310.308 440.851C318.795 447.66 325.34 456.631 329.273 466.844C332.848 476.344 334.009 486.6 332.647 496.672C331.285 506.744 327.446 516.308 321.48 524.486C313.557 535.221 302.41 543.067 289.71 546.849L278.063 550.49C272.908 552.16 267.546 553.094 262.135 553.263C236.086 553.338 210.059 551.746 184.208 548.496C176.244 547.543 167.681 546.416 158.518 545.116L143.617 542.862C99.9709 536.978 56.9655 526.966 15.1655 512.958L12.1682 526.653C8.82848 556.297 35.2896 563.232 43.4248 564.619L222.058 595.216C255.374 600.912 287.723 611.359 318.14 626.248L325.077 629.801C344.241 639.647 362.472 651.253 379.54 664.473L397.78 678.688C429.838 703.419 466.976 720.541 506.451 728.789C532.141 734.25 543.616 732.343 561.257 720.121C561.257 720.121 578.384 705.819 589.345 720.901C592.14 724.248 593.534 728.566 593.23 732.938C592.926 737.309 590.948 741.387 587.718 744.305C568.793 766.841 542.845 774.643 507.136 770.309L400.264 957.796C450.722 977.52 504.341 987.658 558.431 987.7C669.978 987.441 777.309 944.53 858.922 867.563L771.489 538.181L786.39 313.162Z" fill="white"/>
<path d="M267.213 515.823C289.564 514.437 294.102 503.082 295.9 498.488C298.219 492.437 298.219 485.728 295.9 479.678C294.412 475.481 291.84 471.763 288.451 468.913C285.063 466.062 280.982 464.182 276.633 463.469C276.633 463.469 233.815 459.655 178.752 449.427L163.595 446.393C135.935 440.759 108.618 434.605 86.5241 429.057L71.1099 484.359C148.866 505.249 235.871 517.817 267.213 515.823Z" fill="white"/>
<path d="M500.848 382.43C489.471 402.622 486.417 426.541 492.348 448.999C498.279 471.456 512.718 490.641 532.533 502.394L546.919 511.062C562.837 520.376 581.715 523.042 599.543 518.494C617.372 513.947 632.747 502.542 642.402 486.705L650.965 471.969C654.757 465.71 657.258 458.74 658.318 451.477C659.379 444.214 658.977 436.809 657.137 429.708C655.297 422.606 652.057 415.955 647.612 410.154C643.166 404.353 637.607 399.522 631.269 395.952V395.952L526.538 336.576L500.848 382.43ZM543.665 451.773C547.782 451.788 551.77 453.225 554.969 455.847C560.239 460.331 566.843 462.895 573.723 463.128H574.922C580.854 463.121 586.667 461.438 591.705 458.268C596.743 455.098 600.807 450.567 603.438 445.185C604.851 442.182 607.088 439.653 609.882 437.901C612.676 436.148 615.909 435.247 619.195 435.304C621.029 435.281 622.853 435.574 624.59 436.171C626.939 436.938 629.097 438.211 630.915 439.902C632.733 441.592 634.168 443.661 635.123 445.965C636.139 448.255 636.664 450.737 636.664 453.247C636.664 455.757 636.139 458.238 635.123 460.528C629.63 471.883 621.101 481.452 610.505 488.148C599.909 494.844 587.67 498.398 575.179 498.406H572.61C570.811 498.406 568.928 498.406 567.129 497.886C554.536 496.4 542.638 491.252 532.875 483.064C530.977 481.449 529.433 479.451 528.342 477.197C527.251 474.943 526.636 472.484 526.538 469.976C526.46 467.476 526.917 464.989 527.878 462.684C528.839 460.38 530.281 458.314 532.105 456.627C535.22 453.674 539.312 452.005 543.58 451.946L543.665 451.773Z" fill="white"/>
<path d="M433.497 283.437C428.587 280.636 423.17 278.867 417.569 278.236C409.264 277.223 400.849 278.695 393.361 282.469C385.874 286.243 379.643 292.154 375.437 299.472L351.459 341.425L519.303 332.064L433.497 283.437Z" fill="white"/>
<g opacity="0.64">
<path opacity="0.64" d="M763.167 264.644C766.527 258.889 771.459 254.239 777.369 251.256C783.28 248.272 789.916 247.082 796.479 247.828L799.305 248.261C806.321 249.64 812.736 253.207 817.65 258.46C822.564 263.714 825.731 270.392 826.708 277.559L813.435 534.216C813.435 534.216 894.702 828.926 894.702 831.093L900.782 822.425C948.492 763.09 980.349 692.348 993.301 616.977C1006.25 541.605 999.866 464.129 974.752 391.973C949.637 319.817 906.637 255.398 849.871 204.888C793.105 154.377 724.475 119.469 650.558 103.507L646.019 102.64L714.527 347.249L763.167 264.644Z" fill="white"/>
<path opacity="0.64" d="M310.225 323.744L336.6 276.851C345.239 261.908 358.003 249.845 373.323 242.146C388.643 234.446 405.852 231.445 422.834 233.511C434.309 234.803 445.407 238.429 455.461 244.173L518.831 280.145L531.162 172.316L538.184 125.942C538.184 125.942 539.897 112.68 542.038 93.9576C480.206 96.0986 419.499 111.3 363.814 138.587C308.128 165.874 258.693 204.644 218.682 252.407C264.667 258.995 310.225 323.744 310.225 323.744Z" fill="white"/>
<path opacity="0.64" d="M370.063 714.76L353.707 702.018C350.453 699.504 332.127 688.496 311.403 676.014C268.664 650.753 221.934 633.158 173.275 624.007L123.007 614.385C134.663 683.389 162.077 748.685 203.066 805.072C244.054 861.458 297.485 907.378 359.102 939.173C402.604 862.375 458.952 759.92 458.952 759.92C426.84 750.503 396.711 735.195 370.063 714.76V714.76Z" fill="white"/>
</g>
</svg>
