<svg width="100" height="68" viewBox="0 0 100 68" fill="none" xmlns="http://www.w3.org/2000/svg">
<rect x="2.25" y="2.25" width="95.5" height="63.5" rx="5.75" fill="url(#paint0_linear_231_637)"/>
<path d="M23.96 45.336C22.8586 45.336 21.8693 45.1587 20.992 44.804C20.1146 44.4493 19.368 43.9453 18.752 43.292C18.1546 42.6387 17.688 41.8453 17.352 40.912C17.0346 39.9787 16.876 38.9333 16.876 37.776C16.876 36.6187 17.0346 35.5733 17.352 34.64C17.688 33.7067 18.1546 32.9133 18.752 32.26C19.368 31.6067 20.1053 31.1027 20.964 30.748C21.8413 30.3933 22.8306 30.216 23.932 30.216C25.4626 30.216 26.6946 30.5333 27.628 31.168C28.5613 31.8027 29.2706 32.6427 29.756 33.688L26.984 35.2C26.7226 34.584 26.3493 34.0893 25.864 33.716C25.3973 33.324 24.7533 33.128 23.932 33.128C22.868 33.128 22.0466 33.436 21.468 34.052C20.908 34.668 20.628 35.508 20.628 36.572V38.98C20.628 40.0253 20.908 40.8653 21.468 41.5C22.0466 42.116 22.8866 42.424 23.988 42.424C24.8466 42.424 25.528 42.228 26.032 41.836C26.5546 41.444 26.9746 40.9213 27.292 40.268L29.98 41.864C29.4946 42.8907 28.7573 43.7307 27.768 44.384C26.7973 45.0187 25.528 45.336 23.96 45.336Z" fill="#020F30"/>
<path d="M33.805 42.172H38.397V27.108H33.805V24.28H41.981V42.172H46.601V45H33.805V42.172Z" fill="#020F30"/>
<path d="M57.8741 28.312C57.0341 28.312 56.4368 28.1347 56.0821 27.78C55.7461 27.4253 55.5781 26.996 55.5781 26.492V25.82C55.5781 25.316 55.7461 24.8867 56.0821 24.532C56.4368 24.1773 57.0341 24 57.8741 24C58.7141 24 59.3021 24.1773 59.6381 24.532C59.9928 24.8867 60.1701 25.316 60.1701 25.82V26.492C60.1701 26.996 59.9928 27.4253 59.6381 27.78C59.3021 28.1347 58.7141 28.312 57.8741 28.312ZM51.3221 42.172H56.0821V33.38H51.3221V30.552H59.6661V42.172H64.0901V45H51.3221V42.172Z" fill="#020F30"/>
<path fill-rule="evenodd" clip-rule="evenodd" d="M56.2612 24.7065C55.9723 25.0126 55.8281 25.3789 55.8281 25.82V26.492C55.8281 26.9331 55.9723 27.2994 56.2612 27.6055C56.5463 27.8888 57.0604 28.062 57.8741 28.062C58.6919 28.062 59.1923 27.887 59.4566 27.6081L59.4613 27.6032C59.7688 27.2956 59.9201 26.9301 59.9201 26.492V25.82C59.9201 25.3819 59.7689 25.0163 59.4613 24.7088L59.4565 24.704C59.1923 24.425 58.6919 24.25 57.8741 24.25C57.0604 24.25 56.5463 24.4232 56.2612 24.7065ZM55.9053 24.3552C56.3301 23.9305 57.01 23.75 57.8741 23.75C58.7346 23.75 59.4093 23.929 59.8172 24.3576C60.2175 24.7589 60.4201 25.2512 60.4201 25.82V26.492C60.4201 27.0608 60.2175 27.5531 59.8172 27.9544C59.4093 28.383 58.7346 28.562 57.8741 28.562C57.01 28.562 56.3301 28.3815 55.9053 27.9568L55.9005 27.952C55.519 27.5493 55.3281 27.0577 55.3281 26.492V25.82C55.3281 25.2543 55.5191 24.7628 55.9006 24.3601L55.9053 24.3552ZM23.932 30.466C22.8579 30.466 21.9014 30.6388 21.0585 30.9794C20.2324 31.3208 19.5256 31.8043 18.9352 32.4301C18.3637 33.0556 17.9138 33.8182 17.588 34.7226C17.2813 35.6254 17.126 36.6423 17.126 37.776C17.126 38.9097 17.2813 39.9266 17.588 40.8294C17.9138 41.7338 18.3637 42.4964 18.9352 43.1219C19.5249 43.7469 20.2405 44.2306 21.0857 44.5722C21.9288 44.9131 22.8856 45.086 23.96 45.086C25.4959 45.086 26.7129 44.775 27.6309 44.1749C28.5169 43.5897 29.1894 42.852 29.653 41.9606L27.3922 40.6183C27.0762 41.1929 26.6739 41.6666 26.1837 42.0347C25.6231 42.47 24.8823 42.674 23.988 42.674C22.8396 42.674 21.9249 42.3515 21.2858 41.6712L21.2804 41.6655C20.6712 40.9751 20.378 40.0713 20.378 38.98V36.572C20.378 35.4637 20.6705 34.5576 21.283 33.8838L21.2857 33.8808C21.9233 33.2021 22.818 32.878 23.932 32.878C24.7893 32.878 25.4958 33.0823 26.0206 33.5211C26.4727 33.8699 26.8318 34.3153 27.0991 34.8524L29.4269 33.5827C28.9651 32.6751 28.3192 31.9403 27.4874 31.3747C26.6079 30.7767 25.4299 30.466 23.932 30.466Z" fill="#020F30"/>
<rect x="71" y="18" width="14" height="32" rx="2" fill="#2C64F2"/>
<rect x="2.25" y="2.25" width="95.5" height="63.5" rx="5.75" stroke="#020F30" stroke-width="4.5"/>
<defs>
<linearGradient id="paint0_linear_231_637" x1="50" y1="0" x2="50" y2="68" gradientUnits="userSpaceOnUse">
<stop stop-color="#E4EBFE"/>
<stop offset="1" stop-color="#F4F7FE"/>
</linearGradient>
</defs>
</svg>
