<svg width="105" height="104" viewBox="0 0 105 104" fill="none" xmlns="http://www.w3.org/2000/svg">
<rect x="2.33337" y="2" width="100" height="100" rx="50" fill="#002891" stroke="#253B75" stroke-width="4"/>
<mask id="mask0_73_463" style="mask-type:alpha" maskUnits="userSpaceOnUse" x="0" y="0" width="105" height="104">
<rect x="2.33337" y="2" width="100" height="100" rx="50" fill="#253B75" stroke="#253B75" stroke-width="4"/>
</mask>
<g mask="url(#mask0_73_463)">
<path d="M51.31 107.648C50.846 107.849 50.305 107.672 50.0497 107.235L42.4255 94.2035C42.2855 93.9643 42.0526 93.794 41.7823 93.733L27.3542 90.479C26.864 90.3685 26.5319 89.9112 26.5786 89.4107L27.9848 74.3236C28.01 74.0529 27.924 73.7837 27.7465 73.5778L17.8964 62.153C17.5729 61.7778 17.5729 61.2222 17.8964 60.847L27.7465 49.4222C27.924 49.2163 28.01 48.9471 27.9848 48.6764L26.5786 33.5893C26.5319 33.0888 26.864 32.6315 27.3542 32.521L41.7823 29.267C42.0526 29.206 42.2855 29.0356 42.4255 28.7965L50.0497 15.7646C50.305 15.3282 50.846 15.151 51.31 15.3519L64.9362 21.2495C65.1896 21.3592 65.4771 21.3592 65.7306 21.2495L79.3567 15.3519C79.8208 15.151 80.3617 15.3282 80.6171 15.7646L88.2413 28.7965C88.3812 29.0356 88.6141 29.206 88.8844 29.267L103.312 32.521C103.803 32.6315 104.135 33.0888 104.088 33.5893L102.682 48.6764C102.657 48.9471 102.743 49.2163 102.92 49.4222L112.77 60.847C113.094 61.2222 113.094 61.7778 112.77 62.153L102.92 73.5778C102.743 73.7837 102.657 74.0529 102.682 74.3236L104.088 89.4107C104.135 89.9112 103.803 90.3685 103.312 90.479L88.8844 93.733C88.6141 93.794 88.3812 93.9643 88.2413 94.2035L80.6171 107.235C80.3617 107.672 79.8208 107.849 79.3567 107.648L65.7306 101.75C65.4771 101.641 65.1896 101.641 64.9362 101.75L51.31 107.648Z" fill="#2C64F2" stroke="#CEDBFC" stroke-width="3" stroke-linejoin="round"/>
<path d="M53.4707 100.651C53.0078 100.851 52.469 100.674 52.2135 100.24L45.7987 89.3357C45.6584 89.0972 45.4256 88.9275 45.1557 88.867L33.0196 86.145C32.5285 86.0349 32.1958 85.577 32.2428 85.076L33.4253 72.4588C33.4508 72.187 33.3641 71.9167 33.1853 71.7104L24.9013 62.1551C24.5754 61.7791 24.5754 61.2209 24.9013 60.845L33.1853 51.2896C33.3641 51.0833 33.4508 50.813 33.4253 50.5412L32.2428 37.924C32.1958 37.423 32.5285 36.9651 33.0196 36.855L45.1557 34.133C45.4256 34.0725 45.6584 33.9028 45.7987 33.6643L52.2135 22.7602C52.469 22.3258 53.0078 22.1494 53.4707 22.3487L64.938 27.2846C65.1904 27.3932 65.4764 27.3932 65.7287 27.2846L77.196 22.3487C77.6589 22.1494 78.1978 22.3258 78.4533 22.7602L84.868 33.6643C85.0083 33.9028 85.2411 34.0725 85.5111 34.133L97.6472 36.855C98.1382 36.9651 98.4709 37.423 98.424 37.924L97.2414 50.5412C97.216 50.813 97.3027 51.0833 97.4815 51.2896L105.765 60.845C106.091 61.2209 106.091 61.7791 105.765 62.1551L97.4815 71.7104C97.3027 71.9167 97.216 72.187 97.2414 72.4588L98.424 85.076C98.4709 85.577 98.1382 86.0349 97.6472 86.145L85.5111 88.867C85.2411 88.9275 85.0083 89.0972 84.868 89.3357L78.4533 100.24C78.1978 100.674 77.6589 100.851 77.196 100.651L65.7287 95.7154C65.4764 95.6068 65.1904 95.6068 64.938 95.7154L53.4707 100.651Z" fill="#2C64F2" stroke="#6D93F6" stroke-linejoin="round"/>
</g>
<path d="M86.0303 53.8439L86.7554 53.1392L86.0428 52.422L79.9558 46.2952L79.2587 45.5936L78.5495 46.2829L60.76 63.5712L52.1088 55.3592L51.4122 54.698L50.7234 55.3674L44.6364 61.2829L43.8985 62L44.6364 62.7171L60.0712 77.7171L60.7682 78.3944L61.4651 77.7171L86.0303 53.8439Z" fill="#CEDBFC" stroke="#6D93F6" stroke-width="2"/>
<rect x="2.33337" y="2" width="100" height="100" rx="50" stroke="#002891" stroke-width="4"/>
</svg>
