<svg width="388" height="68" viewBox="0 0 388 68" fill="none" xmlns="http://www.w3.org/2000/svg">
<rect x="2.25" y="2.25" width="95.5" height="63.5" rx="5.75" fill="url(#paint0_linear_230_9655)"/>
<path d="M23.96 45.336C22.8586 45.336 21.8693 45.1587 20.992 44.804C20.1146 44.4493 19.368 43.9453 18.752 43.292C18.1546 42.6387 17.688 41.8453 17.352 40.912C17.0346 39.9787 16.876 38.9333 16.876 37.776C16.876 36.6187 17.0346 35.5733 17.352 34.64C17.688 33.7067 18.1546 32.9133 18.752 32.26C19.368 31.6067 20.1053 31.1027 20.964 30.748C21.8413 30.3933 22.8306 30.216 23.932 30.216C25.4626 30.216 26.6946 30.5333 27.628 31.168C28.5613 31.8027 29.2706 32.6427 29.756 33.688L26.984 35.2C26.7226 34.584 26.3493 34.0893 25.864 33.716C25.3973 33.324 24.7533 33.128 23.932 33.128C22.868 33.128 22.0466 33.436 21.468 34.052C20.908 34.668 20.628 35.508 20.628 36.572V38.98C20.628 40.0253 20.908 40.8653 21.468 41.5C22.0466 42.116 22.8866 42.424 23.988 42.424C24.8466 42.424 25.528 42.228 26.032 41.836C26.5546 41.444 26.9746 40.9213 27.292 40.268L29.98 41.864C29.4946 42.8907 28.7573 43.7307 27.768 44.384C26.7973 45.0187 25.528 45.336 23.96 45.336Z" fill="#020F30"/>
<path d="M33.805 42.172H38.397V27.108H33.805V24.28H41.981V42.172H46.601V45H33.805V42.172Z" fill="#020F30"/>
<path d="M57.8741 28.312C57.0341 28.312 56.4368 28.1347 56.0821 27.78C55.7461 27.4253 55.5781 26.996 55.5781 26.492V25.82C55.5781 25.316 55.7461 24.8867 56.0821 24.532C56.4368 24.1773 57.0341 24 57.8741 24C58.7141 24 59.3021 24.1773 59.6381 24.532C59.9928 24.8867 60.1701 25.316 60.1701 25.82V26.492C60.1701 26.996 59.9928 27.4253 59.6381 27.78C59.3021 28.1347 58.7141 28.312 57.8741 28.312ZM51.3221 42.172H56.0821V33.38H51.3221V30.552H59.6661V42.172H64.0901V45H51.3221V42.172Z" fill="#020F30"/>
<path fill-rule="evenodd" clip-rule="evenodd" d="M56.2612 24.7065C55.9723 25.0126 55.8281 25.3789 55.8281 25.82V26.492C55.8281 26.9331 55.9723 27.2994 56.2612 27.6055C56.5463 27.8888 57.0604 28.062 57.8741 28.062C58.6919 28.062 59.1923 27.887 59.4566 27.6081L59.4613 27.6032C59.7688 27.2956 59.9201 26.9301 59.9201 26.492V25.82C59.9201 25.3819 59.7689 25.0163 59.4613 24.7088L59.4565 24.704C59.1923 24.425 58.6919 24.25 57.8741 24.25C57.0604 24.25 56.5463 24.4232 56.2612 24.7065ZM55.9053 24.3552C56.3301 23.9305 57.01 23.75 57.8741 23.75C58.7346 23.75 59.4093 23.929 59.8172 24.3576C60.2175 24.7589 60.4201 25.2512 60.4201 25.82V26.492C60.4201 27.0608 60.2175 27.5531 59.8172 27.9544C59.4093 28.383 58.7346 28.562 57.8741 28.562C57.01 28.562 56.3301 28.3815 55.9053 27.9568L55.9005 27.952C55.519 27.5493 55.3281 27.0577 55.3281 26.492V25.82C55.3281 25.2543 55.5191 24.7628 55.9006 24.3601L55.9053 24.3552ZM23.932 30.466C22.8579 30.466 21.9014 30.6388 21.0585 30.9794C20.2324 31.3208 19.5256 31.8043 18.9352 32.4301C18.3637 33.0556 17.9138 33.8182 17.588 34.7226C17.2813 35.6254 17.126 36.6423 17.126 37.776C17.126 38.9097 17.2813 39.9266 17.588 40.8294C17.9138 41.7338 18.3637 42.4964 18.9352 43.1219C19.5249 43.7469 20.2405 44.2306 21.0857 44.5722C21.9288 44.9131 22.8856 45.086 23.96 45.086C25.4959 45.086 26.7129 44.775 27.6309 44.1749C28.5169 43.5897 29.1894 42.852 29.653 41.9606L27.3922 40.6183C27.0762 41.1929 26.6739 41.6666 26.1837 42.0347C25.6231 42.47 24.8823 42.674 23.988 42.674C22.8396 42.674 21.9249 42.3515 21.2858 41.6712L21.2804 41.6655C20.6712 40.9751 20.378 40.0713 20.378 38.98V36.572C20.378 35.4637 20.6705 34.5576 21.283 33.8838L21.2857 33.8808C21.9233 33.2021 22.818 32.878 23.932 32.878C24.7893 32.878 25.4958 33.0823 26.0206 33.5211C26.4727 33.8699 26.8318 34.3153 27.0991 34.8524L29.4269 33.5827C28.9651 32.6751 28.3192 31.9403 27.4874 31.3747C26.6079 30.7767 25.4299 30.466 23.932 30.466Z" fill="#020F30"/>
<rect x="71" y="18" width="14" height="32" rx="2" fill="#2C64F2"/>
<rect x="2.25" y="2.25" width="95.5" height="63.5" rx="5.75" stroke="#020F30" stroke-width="4.5"/>
<path d="M127.194 20.172L134.376 41.414L141.596 20.172H147.334L137.834 47H130.956L121.456 20.172H127.194ZM170.023 35.676C170.023 36.208 169.96 36.816 169.833 37.5H154.405C154.481 39.3747 154.988 40.7553 155.925 41.642C156.862 42.5287 158.028 42.972 159.421 42.972C160.662 42.972 161.688 42.668 162.499 42.06C163.335 41.452 163.867 40.6287 164.095 39.59H169.757C169.478 41.0593 168.883 42.3767 167.971 43.542C167.059 44.7073 165.881 45.6193 164.437 46.278C163.018 46.9367 161.435 47.266 159.687 47.266C157.635 47.266 155.811 46.8353 154.215 45.974C152.619 45.0873 151.378 43.8333 150.491 42.212C149.604 40.5907 149.161 38.678 149.161 36.474C149.161 34.27 149.604 32.3573 150.491 30.736C151.378 29.0893 152.619 27.8353 154.215 26.974C155.811 26.1127 157.635 25.682 159.687 25.682C161.764 25.682 163.576 26.1127 165.121 26.974C166.692 27.8353 167.895 29.026 168.731 30.546C169.592 32.0407 170.023 33.7507 170.023 35.676ZM164.627 35.144C164.703 33.4213 164.247 32.1167 163.259 31.23C162.296 30.3433 161.106 29.9 159.687 29.9C158.243 29.9 157.027 30.3433 156.039 31.23C155.051 32.1167 154.506 33.4213 154.405 35.144H164.627ZM179.185 29.976C179.97 28.6333 181.009 27.582 182.301 26.822C183.593 26.0367 185.037 25.644 186.633 25.644V31.382H185.075C181.148 31.382 179.185 33.206 179.185 36.854V47H173.827V25.948H179.185V29.976ZM193.208 25.948L198.946 40.236L204.266 25.948H210.156L197.274 57.032H191.346L196.096 46.392L187.242 25.948H193.208ZM233.381 19.906C236.649 19.906 239.36 20.7167 241.513 22.338C243.667 23.934 245.047 26.1 245.655 28.836H240.031C239.499 27.62 238.651 26.6573 237.485 25.948C236.345 25.2133 234.99 24.846 233.419 24.846C231.874 24.846 230.506 25.2007 229.315 25.91C228.125 26.6193 227.2 27.6327 226.541 28.95C225.883 30.2673 225.553 31.8127 225.553 33.586C225.553 36.398 226.301 38.5893 227.795 40.16C229.315 41.7307 231.38 42.516 233.989 42.516C235.915 42.516 237.561 41.946 238.929 40.806C240.323 39.666 241.222 38.0827 241.627 36.056H232.545V32.218H246.111V37.386C245.731 39.1593 244.984 40.7933 243.869 42.288C242.78 43.7827 241.336 44.986 239.537 45.898C237.764 46.7847 235.725 47.228 233.419 47.228C230.785 47.228 228.454 46.658 226.427 45.518C224.426 44.3527 222.868 42.744 221.753 40.692C220.664 38.6147 220.119 36.246 220.119 33.586C220.119 30.926 220.664 28.57 221.753 26.518C222.868 24.4407 224.426 22.8193 226.427 21.654C228.429 20.4887 230.747 19.906 233.381 19.906ZM259.851 25.682C261.903 25.682 263.74 26.1127 265.361 26.974C267.008 27.8353 268.3 29.0893 269.237 30.736C270.175 32.3573 270.643 34.27 270.643 36.474C270.643 38.678 270.175 40.5907 269.237 42.212C268.3 43.8333 267.008 45.0873 265.361 45.974C263.74 46.8353 261.903 47.266 259.851 47.266C257.799 47.266 255.95 46.8353 254.303 45.974C252.682 45.0873 251.403 43.8333 250.465 42.212C249.528 40.5907 249.059 38.678 249.059 36.474C249.059 34.27 249.528 32.3573 250.465 30.736C251.403 29.0893 252.682 27.8353 254.303 26.974C255.95 26.1127 257.799 25.682 259.851 25.682ZM259.851 30.318C258.357 30.318 257.09 30.85 256.051 31.914C255.013 32.9527 254.493 34.4727 254.493 36.474C254.493 38.4753 255.013 40.008 256.051 41.072C257.09 42.1107 258.357 42.63 259.851 42.63C261.346 42.63 262.613 42.1107 263.651 41.072C264.69 40.008 265.209 38.4753 265.209 36.474C265.209 34.4727 264.69 32.9527 263.651 31.914C262.613 30.85 261.346 30.318 259.851 30.318ZM284.158 25.682C286.21 25.682 288.047 26.1127 289.668 26.974C291.315 27.8353 292.607 29.0893 293.544 30.736C294.481 32.3573 294.95 34.27 294.95 36.474C294.95 38.678 294.481 40.5907 293.544 42.212C292.607 43.8333 291.315 45.0873 289.668 45.974C288.047 46.8353 286.21 47.266 284.158 47.266C282.106 47.266 280.257 46.8353 278.61 45.974C276.989 45.0873 275.709 43.8333 274.772 42.212C273.835 40.5907 273.366 38.678 273.366 36.474C273.366 34.27 273.835 32.3573 274.772 30.736C275.709 29.0893 276.989 27.8353 278.61 26.974C280.257 26.1127 282.106 25.682 284.158 25.682ZM284.158 30.318C282.663 30.318 281.397 30.85 280.358 31.914C279.319 32.9527 278.8 34.4727 278.8 36.474C278.8 38.4753 279.319 40.008 280.358 41.072C281.397 42.1107 282.663 42.63 284.158 42.63C285.653 42.63 286.919 42.1107 287.958 41.072C288.997 40.008 289.516 38.4753 289.516 36.474C289.516 34.4727 288.997 32.9527 287.958 31.914C286.919 30.85 285.653 30.318 284.158 30.318ZM306.983 25.682C308.756 25.682 310.263 26.1 311.505 26.936C312.771 27.772 313.683 28.8993 314.241 30.318V18.88H319.561V47H314.241V42.592C313.683 44.0107 312.771 45.1507 311.505 46.012C310.263 46.848 308.756 47.266 306.983 47.266C305.209 47.266 303.613 46.8353 302.195 45.974C300.776 45.1127 299.661 43.8713 298.851 42.25C298.065 40.6033 297.673 38.678 297.673 36.474C297.673 34.27 298.065 32.3573 298.851 30.736C299.661 29.0893 300.776 27.8353 302.195 26.974C303.613 26.1127 305.209 25.682 306.983 25.682ZM308.655 30.356C306.983 30.356 305.64 30.9007 304.627 31.99C303.613 33.0793 303.107 34.574 303.107 36.474C303.107 38.374 303.613 39.8687 304.627 40.958C305.64 42.022 306.983 42.554 308.655 42.554C310.276 42.554 311.606 42.0093 312.645 40.92C313.709 39.8053 314.241 38.3233 314.241 36.474C314.241 34.5993 313.709 33.1173 312.645 32.028C311.606 30.9133 310.276 30.356 308.655 30.356ZM344.814 19.906C348.158 19.906 350.932 20.7673 353.136 22.49C355.34 24.2127 356.796 26.556 357.506 29.52H351.882C351.299 28.076 350.387 26.936 349.146 26.1C347.93 25.264 346.46 24.846 344.738 24.846C343.319 24.846 342.04 25.2007 340.9 25.91C339.76 26.6193 338.873 27.6327 338.24 28.95C337.606 30.2673 337.29 31.8127 337.29 33.586C337.29 35.334 337.606 36.8667 338.24 38.184C338.873 39.5013 339.76 40.5147 340.9 41.224C342.04 41.9333 343.319 42.288 344.738 42.288C346.46 42.288 347.93 41.87 349.146 41.034C350.387 40.198 351.299 39.058 351.882 37.614H357.506C356.796 40.578 355.34 42.9213 353.136 44.644C350.932 46.3667 348.158 47.228 344.814 47.228C342.255 47.228 339.988 46.658 338.012 45.518C336.061 44.3527 334.541 42.7313 333.452 40.654C332.388 38.5767 331.856 36.2207 331.856 33.586C331.856 30.926 332.388 28.5573 333.452 26.48C334.541 24.4027 336.061 22.794 338.012 21.654C339.962 20.4887 342.23 19.906 344.814 19.906ZM366.884 42.896H375.89V47H361.526V20.172H366.884V42.896ZM384.436 20.172V47H379.078V20.172H384.436Z" fill="#020F30"/>
<defs>
<linearGradient id="paint0_linear_230_9655" x1="50" y1="0" x2="50" y2="68" gradientUnits="userSpaceOnUse">
<stop stop-color="#E4EBFE"/>
<stop offset="1" stop-color="#F4F7FE"/>
</linearGradient>
</defs>
</svg>
