<svg width="376" height="90" viewBox="0 0 376 90" fill="none" xmlns="http://www.w3.org/2000/svg">
<rect x="6" y="6" width="78" height="78" rx="16" fill="url(#paint0_linear_2575_2193)"/>
<path d="M19.988 56.336C18.8493 56.336 17.8227 56.168 16.908 55.832C16.012 55.4773 15.2467 54.9733 14.612 54.32C13.996 53.6667 13.52 52.8733 13.184 51.94C12.848 51.0067 12.68 49.952 12.68 48.776C12.68 47.6 12.848 46.5453 13.184 45.612C13.52 44.6787 13.996 43.8853 14.612 43.232C15.2467 42.5787 16.012 42.084 16.908 41.748C17.8227 41.3933 18.84 41.216 19.96 41.216C21.5467 41.216 22.816 41.5427 23.768 42.196C24.7387 42.8307 25.476 43.68 25.98 44.744L22.788 46.48C22.5267 45.92 22.1813 45.4533 21.752 45.08C21.3413 44.7067 20.744 44.52 19.96 44.52C19.008 44.52 18.2707 44.8 17.748 45.36C17.244 45.9013 16.992 46.648 16.992 47.6V49.952C16.992 50.904 17.244 51.66 17.748 52.22C18.2707 52.7613 19.0267 53.032 20.016 53.032C20.8187 53.032 21.444 52.8453 21.892 52.472C22.3587 52.0987 22.7507 51.6133 23.068 51.016L26.204 52.808C25.6813 53.872 24.916 54.7307 23.908 55.384C22.9187 56.0187 21.612 56.336 19.988 56.336ZM29.6931 52.78H34.1171V38.5H29.6931V35.28H38.2611V52.78H42.6851V56H29.6931V52.78ZM53.8741 39.704C52.9408 39.704 52.2875 39.5173 51.9141 39.144C51.5595 38.752 51.3821 38.2853 51.3821 37.744V36.932C51.3821 36.372 51.5595 35.9053 51.9141 35.532C52.2875 35.1587 52.9408 34.972 53.8741 34.972C54.8075 34.972 55.4515 35.1587 55.8061 35.532C56.1795 35.9053 56.3661 36.372 56.3661 36.932V37.744C56.3661 38.2853 56.1795 38.752 55.8061 39.144C55.4515 39.5173 54.8075 39.704 53.8741 39.704ZM47.2101 52.78H51.8021V44.772H47.2101V41.552H55.9461V52.78H60.2021V56H47.2101V52.78Z" fill="#2A48DF"/>
<rect x="65" y="29" width="14" height="32" rx="2" fill="#9EB7F9"/>
<rect x="6" y="6" width="78" height="78" rx="16" stroke="#CEDBFC" stroke-width="2"/>
<rect x="2.5" y="2.5" width="85" height="85" rx="19.5" stroke="#232938" stroke-width="5"/>
<path d="M117.395 31.3636L124.075 52.3608H124.331L131.024 31.3636H137.501L127.974 59H120.445L110.904 31.3636H117.395ZM147.828 59.4048C145.696 59.4048 143.861 58.973 142.322 58.1094C140.793 57.2367 139.614 56.0043 138.787 54.4119C137.959 52.8106 137.545 50.9169 137.545 48.7308C137.545 46.5987 137.959 44.7275 138.787 43.1172C139.614 41.5069 140.779 40.2519 142.282 39.3523C143.793 38.4527 145.565 38.0028 147.599 38.0028C148.966 38.0028 150.239 38.2232 151.417 38.6641C152.605 39.0959 153.64 39.7481 154.521 40.6207C155.412 41.4934 156.104 42.5909 156.599 43.9134C157.094 45.2268 157.341 46.7652 157.341 48.5284V50.1072H139.839V46.5447H151.93C151.93 45.7171 151.75 44.9839 151.39 44.3452C151.031 43.7064 150.531 43.2071 149.893 42.8473C149.263 42.4785 148.53 42.294 147.693 42.294C146.82 42.294 146.047 42.4964 145.372 42.9013C144.706 43.2971 144.184 43.8324 143.807 44.5071C143.429 45.1728 143.235 45.915 143.226 46.7337V50.1207C143.226 51.1463 143.415 52.0324 143.793 52.7791C144.18 53.5258 144.724 54.1016 145.426 54.5064C146.128 54.9112 146.96 55.1136 147.922 55.1136C148.561 55.1136 149.146 55.0237 149.677 54.8438C150.207 54.6638 150.662 54.3939 151.04 54.0341C151.417 53.6742 151.705 53.2334 151.903 52.7116L157.22 53.0625C156.95 54.34 156.397 55.4555 155.56 56.4091C154.733 57.3537 153.662 58.0914 152.349 58.6222C151.044 59.1439 149.537 59.4048 147.828 59.4048ZM161.093 59V38.2727H166.666V41.8892H166.882C167.26 40.6027 167.894 39.6312 168.785 38.9744C169.675 38.3087 170.701 37.9759 171.861 37.9759C172.149 37.9759 172.46 37.9938 172.792 38.0298C173.125 38.0658 173.418 38.1153 173.67 38.1783V43.2791C173.4 43.1982 173.026 43.1262 172.55 43.0632C172.073 43.0002 171.636 42.9688 171.241 42.9688C170.395 42.9688 169.639 43.1532 168.974 43.522C168.317 43.8819 167.795 44.3857 167.408 45.0334C167.03 45.6811 166.841 46.4278 166.841 47.2734V59H161.093ZM180.822 66.7727C180.093 66.7727 179.409 66.7143 178.77 66.5973C178.141 66.4893 177.619 66.3499 177.205 66.179L178.501 61.8878C179.175 62.0947 179.782 62.2071 180.322 62.2251C180.871 62.2431 181.343 62.1172 181.739 61.8473C182.144 61.5774 182.472 61.1186 182.724 60.4709L183.062 59.5938L175.626 38.2727H181.672L185.963 53.4943H186.179L190.51 38.2727H196.596L188.54 61.2401C188.153 62.3556 187.627 63.3272 186.961 64.1548C186.305 64.9915 185.473 65.6347 184.465 66.0845C183.457 66.5433 182.243 66.7727 180.822 66.7727ZM226.766 40.2969C226.577 39.6402 226.312 39.0599 225.97 38.5561C225.628 38.0433 225.21 37.6115 224.715 37.2607C224.229 36.9008 223.672 36.6264 223.042 36.4375C222.421 36.2486 221.733 36.1541 220.977 36.1541C219.565 36.1541 218.323 36.505 217.253 37.2067C216.191 37.9084 215.364 38.9294 214.77 40.2699C214.176 41.6013 213.879 43.2296 213.879 45.1548C213.879 47.08 214.172 48.7173 214.756 50.0668C215.341 51.4162 216.169 52.4463 217.239 53.157C218.31 53.8587 219.574 54.2095 221.031 54.2095C222.354 54.2095 223.483 53.9756 224.418 53.5078C225.363 53.031 226.083 52.3608 226.577 51.4972C227.081 50.6335 227.333 49.6125 227.333 48.4339L228.521 48.6094H221.396V44.2102H232.96V47.6918C232.96 50.1207 232.447 52.2079 231.422 53.9531C230.396 55.6894 228.984 57.0298 227.185 57.9744C225.385 58.91 223.325 59.3778 221.004 59.3778C218.413 59.3778 216.137 58.8066 214.176 57.6641C212.215 56.5125 210.686 54.8797 209.588 52.7656C208.5 50.6425 207.955 48.1236 207.955 45.2088C207.955 42.9687 208.279 40.9716 208.927 39.2173C209.584 37.4541 210.501 35.9607 211.68 34.7372C212.858 33.5137 214.23 32.5826 215.795 31.9439C217.361 31.3052 219.057 30.9858 220.883 30.9858C222.448 30.9858 223.906 31.2152 225.255 31.674C226.604 32.1238 227.801 32.7625 228.844 33.5902C229.897 34.4178 230.756 35.4029 231.422 36.5455C232.088 37.679 232.515 38.9294 232.704 40.2969H226.766ZM246.606 59.4048C244.51 59.4048 242.698 58.9595 241.168 58.0689C239.648 57.1693 238.474 55.9188 237.646 54.3175C236.818 52.7071 236.405 50.8404 236.405 48.7173C236.405 46.5762 236.818 44.705 237.646 43.1037C238.474 41.4934 239.648 40.2429 241.168 39.3523C242.698 38.4527 244.51 38.0028 246.606 38.0028C248.702 38.0028 250.511 38.4527 252.031 39.3523C253.56 40.2429 254.739 41.4934 255.567 43.1037C256.394 44.705 256.808 46.5762 256.808 48.7173C256.808 50.8404 256.394 52.7071 255.567 54.3175C254.739 55.9188 253.56 57.1693 252.031 58.0689C250.511 58.9595 248.702 59.4048 246.606 59.4048ZM246.633 54.9517C247.587 54.9517 248.383 54.6818 249.022 54.142C249.661 53.5933 250.142 52.8466 250.466 51.902C250.799 50.9574 250.965 49.8823 250.965 48.6768C250.965 47.4714 250.799 46.3963 250.466 45.4517C250.142 44.5071 249.661 43.7604 249.022 43.2116C248.383 42.6629 247.587 42.3885 246.633 42.3885C245.671 42.3885 244.861 42.6629 244.204 43.2116C243.557 43.7604 243.066 44.5071 242.733 45.4517C242.41 46.3963 242.248 47.4714 242.248 48.6768C242.248 49.8823 242.41 50.9574 242.733 51.902C243.066 52.8466 243.557 53.5933 244.204 54.142C244.861 54.6818 245.671 54.9517 246.633 54.9517ZM269.911 59.4048C267.815 59.4048 266.002 58.9595 264.473 58.0689C262.952 57.1693 261.778 55.9188 260.951 54.3175C260.123 52.7071 259.709 50.8404 259.709 48.7173C259.709 46.5762 260.123 44.705 260.951 43.1037C261.778 41.4934 262.952 40.2429 264.473 39.3523C266.002 38.4527 267.815 38.0028 269.911 38.0028C272.007 38.0028 273.815 38.4527 275.336 39.3523C276.865 40.2429 278.044 41.4934 278.871 43.1037C279.699 44.705 280.113 46.5762 280.113 48.7173C280.113 50.8404 279.699 52.7071 278.871 54.3175C278.044 55.9188 276.865 57.1693 275.336 58.0689C273.815 58.9595 272.007 59.4048 269.911 59.4048ZM269.938 54.9517C270.892 54.9517 271.688 54.6818 272.327 54.142C272.965 53.5933 273.447 52.8466 273.77 51.902C274.103 50.9574 274.27 49.8823 274.27 48.6768C274.27 47.4714 274.103 46.3963 273.77 45.4517C273.447 44.5071 272.965 43.7604 272.327 43.2116C271.688 42.6629 270.892 42.3885 269.938 42.3885C268.975 42.3885 268.166 42.6629 267.509 43.2116C266.861 43.7604 266.371 44.5071 266.038 45.4517C265.714 46.3963 265.552 47.4714 265.552 48.6768C265.552 49.8823 265.714 50.9574 266.038 51.902C266.371 52.8466 266.861 53.5933 267.509 54.142C268.166 54.6818 268.975 54.9517 269.938 54.9517ZM291.488 59.3374C289.914 59.3374 288.488 58.9325 287.211 58.1229C285.942 57.3042 284.935 56.1032 284.188 54.5199C283.45 52.9276 283.081 50.9754 283.081 48.6634C283.081 46.2884 283.464 44.3137 284.229 42.7393C284.993 41.156 286.01 39.973 287.278 39.1903C288.556 38.3987 289.955 38.0028 291.475 38.0028C292.635 38.0028 293.603 38.2008 294.376 38.5966C295.159 38.9834 295.789 39.4692 296.265 40.054C296.751 40.6297 297.12 41.1965 297.372 41.7543H297.547V31.3636H303.282V59H297.615V55.6804H297.372C297.102 56.2562 296.72 56.8274 296.225 57.3942C295.739 57.9519 295.105 58.4152 294.322 58.7841C293.549 59.1529 292.604 59.3374 291.488 59.3374ZM293.31 54.7628C294.237 54.7628 295.019 54.5109 295.658 54.0071C296.306 53.4943 296.801 52.7791 297.143 51.8615C297.493 50.9439 297.669 49.8688 297.669 48.6364C297.669 47.4039 297.498 46.3333 297.156 45.4247C296.814 44.5161 296.319 43.8144 295.672 43.3196C295.024 42.8248 294.237 42.5774 293.31 42.5774C292.366 42.5774 291.569 42.8338 290.922 43.3466C290.274 43.8594 289.784 44.5701 289.451 45.4787C289.118 46.3873 288.952 47.4399 288.952 48.6364C288.952 49.8419 289.118 50.9079 289.451 51.8345C289.793 52.7521 290.283 53.4718 290.922 53.9936C291.569 54.5064 292.366 54.7628 293.31 54.7628ZM341.296 41.0391H335.385C335.278 40.2744 335.057 39.5952 334.724 39.0014C334.391 38.3987 333.964 37.8859 333.442 37.4631C332.921 37.0402 332.318 36.7164 331.634 36.4915C330.959 36.2666 330.226 36.1541 329.434 36.1541C328.004 36.1541 326.758 36.5095 325.697 37.2202C324.635 37.9219 323.812 38.9474 323.227 40.2969C322.642 41.6373 322.35 43.2656 322.35 45.1818C322.35 47.152 322.642 48.8073 323.227 50.1477C323.821 51.4882 324.648 52.5002 325.71 53.1839C326.772 53.8677 328 54.2095 329.394 54.2095C330.177 54.2095 330.901 54.1061 331.567 53.8991C332.241 53.6922 332.84 53.3909 333.361 52.995C333.883 52.5902 334.315 52.0999 334.657 51.5241C335.008 50.9484 335.251 50.2917 335.385 49.554L341.296 49.581C341.143 50.8494 340.761 52.0729 340.149 53.2514C339.546 54.4209 338.732 55.469 337.706 56.3956C336.69 57.3132 335.475 58.0419 334.063 58.5817C332.66 59.1125 331.072 59.3778 329.3 59.3778C326.835 59.3778 324.631 58.8201 322.687 57.7045C320.753 56.589 319.224 54.9742 318.099 52.8601C316.984 50.746 316.426 48.1866 316.426 45.1818C316.426 42.1681 316.993 39.6042 318.126 37.4901C319.26 35.3759 320.798 33.7656 322.741 32.6591C324.684 31.5436 326.871 30.9858 329.3 30.9858C330.901 30.9858 332.385 31.2107 333.753 31.6605C335.129 32.1103 336.348 32.767 337.41 33.6307C338.471 34.4853 339.335 35.5334 340.001 36.7749C340.675 38.0163 341.107 39.4377 341.296 41.0391ZM345.486 59V31.3636H351.329V54.1825H363.177V59H345.486ZM372.89 31.3636V59H367.047V31.3636H372.89Z" fill="white"/>
<defs>
<linearGradient id="paint0_linear_2575_2193" x1="45" y1="5" x2="45" y2="85" gradientUnits="userSpaceOnUse">
<stop stop-color="#B9CCFF"/>
<stop offset="1" stop-color="#D8E3FF"/>
</linearGradient>
</defs>
</svg>
